<svg xmlns="http://www.w3.org/2000/svg" viewBox="0 0 195.8 195.7">
  <defs>
    <style>
      .cls-1 {
        fill: #fff;
        stroke: #bbb;
      }

      .cls-1, .cls-2 {
        stroke-miterlimit: 10;
        stroke-width: 30px;
      }

      .cls-2 {
        fill: none;
        stroke: #4fb49e;
        stroke-linecap: round;
      }

      .cls-3 {
        fill: #878787;
        font-size: 45px;
        font-family: CircularStd-Book, Circular Std Book;
      }
    </style>
  </defs>
  <g id="Group_243" data-name="Group 243" transform="translate(-144.6 -622)">
    <circle id="Ellipse_128" data-name="Ellipse 128" class="cls-1" cx="82.6" cy="82.6" r="82.6" transform="translate(160 637)"/>
    <path id="Path_167" data-name="Path 167" class="cls-2" d="M103.1,22.5h2.2a82.624,82.624,0,0,1,82.6,82.6,70.263,70.263,0,0,1-.4,8" transform="translate(137.5 614.5)"/>
    <text id="_80_" data-name="80%" class="cls-3" transform="translate(209 737)"><tspan x="0" y="0">80%</tspan></text>
    <path id="Path_168" data-name="Path 168" class="cls-2" d="M103.1,22.5h2.2a82.624,82.624,0,0,1,82.6,82.6,70.263,70.263,0,0,1-.4,8" transform="translate(347.8 614.8) rotate(90)"/>
    <path id="Path_169" data-name="Path 169" class="cls-2" d="M103.1,22.5h2.2a82.624,82.624,0,0,1,82.6,82.6,70.263,70.263,0,0,1-.4,8" transform="translate(347.5 825.1) rotate(180)"/>
  </g>
</svg>
