<svg xmlns="http://www.w3.org/2000/svg" xmlns:xlink="http://www.w3.org/1999/xlink" viewBox="0 0 34.46 30.75"><defs><style>.cls-1{fill:#fcfafb;stroke-miterlimit:10;stroke-width:0.75px;fill-rule:evenodd;stroke:url(#linear-gradient);}</style><linearGradient id="linear-gradient" y1="15.38" x2="34.46" y2="15.38" gradientUnits="userSpaceOnUse"><stop offset="0" stop-color="#3e52a7"/><stop offset="1" stop-color="#3e52a7"/></linearGradient></defs><title>Asset 48</title><g id="Layer_2" data-name="Layer 2"><g id="REACT_gray" data-name="REACT gray"><path class="cls-1" d="M19.13,14.91c0,1.83,0,3.66,0,5.49a.83.83,0,0,1-.91.88.84.84,0,0,1-.9-.89c0-1.51,0-3,0-4.53a1.43,1.43,0,0,0,0-.36.22.22,0,0,0-.16-.14c-.08,0-.21.07-.23.13a1.85,1.85,0,0,0,0,.41V29.17a1.07,1.07,0,0,1-1.26,1.2,1.07,1.07,0,0,1-1.13-.84,2.46,2.46,0,0,1,0-.54V21.26c-.42,0-.43,0-.43.36v5.59c0,.7,0,1.4,0,2.1a1.05,1.05,0,0,1-1.16,1.06,1.07,1.07,0,0,1-1.24-1,4.13,4.13,0,0,1,0-.5V16.11a1.13,1.13,0,0,0,0-.32,2.86,2.86,0,0,0-.2-.44c-.08.14-.22.28-.22.42,0,1.31,0,2.62,0,3.94,0,.23,0,.46,0,.68a.73.73,0,0,1-.59.82.93.93,0,0,1-1.12-.37l-.11-.09V14.43c.05-.11.11-.22.15-.33A2.62,2.62,0,0,1,12,12.52h4.21C17.94,12.52,19.09,13.44,19.13,14.91Zm-4.58-3A2.19,2.19,0,0,0,16.48,9.7c0-1.09-.53-1.75-1.81-2.26h-.91l-.49.23a2.26,2.26,0,0,0-1.13,2.66A2.21,2.21,0,0,0,14.55,11.89Zm19.5-2C34,8,32.47,6.75,30.21,6.75H24.58a3.5,3.5,0,0,0-3.35,2.09c-.06.15-.13.29-.2.44v8.36a.55.55,0,0,1,.14.12,1.26,1.26,0,0,0,1.5.49,1,1,0,0,0,.78-1.08c0-.31,0-.61,0-.91,0-1.74,0-3.47,0-5.21,0-.18.19-.37.29-.55a4.35,4.35,0,0,1,.27.58,1.47,1.47,0,0,1,0,.42V28.4c0,.22,0,.44,0,.66a1.43,1.43,0,0,0,1.66,1.31A1.4,1.4,0,0,0,27.25,29c0-.93,0-1.85,0-2.78,0-2.47,0-4.93,0-7.39,0-.5,0-.5.57-.49V28.54a4.36,4.36,0,0,0,.05.72,1.44,1.44,0,0,0,1.51,1.11,1.43,1.43,0,0,0,1.68-1.59V11.22a1.94,1.94,0,0,1,0-.54c0-.08.19-.16.3-.17a.26.26,0,0,1,.21.18,1.91,1.91,0,0,1,0,.48c0,2,0,4,0,6a1.21,1.21,0,0,0,2.41,0C34.08,14.76,34.11,12.33,34.05,9.91ZM28,6.27A2.91,2.91,0,0,0,30.5,3.36c0-1.44-.69-2.31-2.4-3H26.91l-.65.3A3,3,0,0,0,24.75,4.2,3,3,0,0,0,28,6.27ZM5.57,17.75H2.38a2,2,0,0,0-1.9,1.12c0,.08-.07.15-.1.23v4.47a.46.46,0,0,1,.07.07.75.75,0,0,0,.85.26.53.53,0,0,0,.44-.58v-.49c0-.93,0-1.85,0-2.78,0-.1.11-.2.17-.29a2.1,2.1,0,0,1,.15.3.87.87,0,0,1,0,.23v9c0,.12,0,.24,0,.35a.8.8,0,0,0,.94.7c.53,0,.87-.29.88-.74V24.19c0-.27,0-.27.32-.26v5.46a1.71,1.71,0,0,0,0,.39.8.8,0,0,0,.85.59c.63,0,1-.27,1-.85,0-3.12,0-6.25,0-9.38a.93.93,0,0,1,0-.29s.11-.08.17-.09a.19.19,0,0,1,.12.09,1.18,1.18,0,0,1,0,.26c0,1.07,0,2.14,0,3.21a.61.61,0,0,0,.68.62.61.61,0,0,0,.69-.62c0-1.29,0-2.59,0-3.88C7.71,18.4,6.85,17.75,5.57,17.75ZM4.28,17a1.56,1.56,0,0,0,1.36-1.55c0-.77-.37-1.24-1.28-1.6H3.72L3.37,14a1.59,1.59,0,0,0-.8,1.88A1.56,1.56,0,0,0,4.28,17Z"/></g></g></svg>