<svg xmlns="http://www.w3.org/2000/svg" viewBox="0 0 15 20">
  <defs>
    <style>
      .cls-1 {
        fill: #be4c4c;
      }
    </style>
  </defs>
  <g id="rubbish-bin" transform="translate(-81.133)">
    <g id="Group_117" data-name="Group 117" transform="translate(81.133)">
      <path id="Path_145" data-name="Path 145" class="cls-1" d="M94.839,2.355H92.305V.62a.6.6,0,0,0-.6-.62.087.087,0,0,0-.064.023A.08.08,0,0,0,91.6,0H85.559a.6.6,0,0,0-.588.62V2.355H82.427a1.314,1.314,0,0,0-1.294,1.363V5.949h1.123v12.7A1.3,1.3,0,0,0,83.539,20H93.727a1.3,1.3,0,0,0,1.294-1.352V5.949h1.112V3.718A1.314,1.314,0,0,0,94.839,2.355ZM86.147,1.239h4.972V2.355H86.147Zm7.687,17.408c0,.079-.032.113-.107.113H83.539c-.075,0-.107-.034-.107-.113V5.949h10.4ZM94.946,4.71H82.32V3.718c0-.079.032-.124.107-.124H94.839c.075,0,.107.045.107.124V4.71Z" transform="translate(-81.133)"/>
      <rect id="Rectangle_60" data-name="Rectangle 60" class="cls-1" width="1.187" height="10.253" transform="translate(9.654 7.403)"/>
      <rect id="Rectangle_61" data-name="Rectangle 61" class="cls-1" width="1.187" height="10.253" transform="translate(6.917 7.403)"/>
      <rect id="Rectangle_62" data-name="Rectangle 62" class="cls-1" width="1.187" height="10.253" transform="translate(4.18 7.403)"/>
    </g>
  </g>
</svg>
