<svg xmlns="http://www.w3.org/2000/svg" viewBox="0 0 20.02 19.92"><defs><style>.cls-1,.cls-2,.cls-3{fill:#bbb;}.cls-2,.cls-3{stroke:#cc9;stroke-linecap:round;stroke-miterlimit:10;}.cls-2{stroke-width:3.22px;}.cls-3{stroke-width:2.11px;fill-rule:evenodd;}</style></defs><title>Asset 15</title><g id="Layer_2" data-name="Layer 2"><g id="Layer_1-2" data-name="Layer 1"><polygon class="cls-1" points="12.89 6.16 10.03 6.16 11.46 3.44 10.3 3.46 10.77 2.52 13.34 2.52 11.95 5.19 13.34 5.19 12.89 6.16"/><polygon class="cls-1" points="19.42 4.83 15.62 4.83 17.52 1.22 15.99 1.25 16.6 0 20.01 0 18.17 3.54 20.01 3.54 19.42 4.83"/><line class="cls-2" x1="12.59" y1="18.31" x2="7.45" y2="18.31"/><path class="cls-3" d="M13.08,18.13c0-.7-1.38-1.27-3.06-1.27S7,17.43,7,18.13"/><line class="cls-1" x1="7.39" y1="19.92" x2="12.72" y2="19.92"/><path class="cls-3" d="M19,9.94a3,3,0,0,1-6,0"/><path class="cls-3" d="M7.07,9.94a3,3,0,0,1-6,0"/></g></g></svg>