<svg xmlns="http://www.w3.org/2000/svg" viewBox="0 0 44.11 55"><defs><style>.cls-1,.cls-2{fill:#bbb;}.cls-2{stroke:#fff;stroke-miterlimit:10;stroke-width:3px;fill-rule:evenodd;}</style></defs><title>Asset 6</title><g id="Layer_2" data-name="Layer 2"><g id="Layer_1-2" data-name="Layer 1"><circle class="cls-1" cx="19.4" cy="15.49" r="15.49"/><path class="cls-2" d="M2.08,41c4.07-5.05,9.22-.33,14-1.38,0-7.13.07-10,0-17.21a65,65,0,0,1,.19-7c.1-1.13,1-2.82,3.65-2.82,2.47,0,3.67,1.29,4,2.48.45,1.72.23,4.16.25,7.05,0,1.64,0,4.88,0,6,5.45,2.24,10.41,4.29,15.38,6.31,2.56,1,3.45,2.63,2.94,5-.73,3.45-1.25,6.94-1.75,10.42-.36,2.49-1.95,3.65-4.84,3.64-5.59,0-11.17,0-16.76-.05a6.54,6.54,0,0,1-3.67-1C10.92,48.75,6.56,44.89,2.08,41Z"/></g></g></svg>