<svg xmlns="http://www.w3.org/2000/svg" xmlns:xlink="http://www.w3.org/1999/xlink" viewBox="0 0 172.96 41.18"><defs><style>.cls-1{stroke:#fcfafb;stroke-miterlimit:10;stroke-width:0.75px;fill:url(#linear-gradient);}</style><linearGradient id="linear-gradient" x1="0.38" y1="20.59" x2="172.58" y2="20.59" gradientUnits="userSpaceOnUse"><stop offset="0" stop-color="#3e52a7"/><stop offset="1" stop-color="#3e52a7"/></linearGradient></defs><title>Asset 45</title><g id="Layer_2" data-name="Layer 2"><g id="tittles"><path class="cls-1" d="M170.5,40.81H142.23a2.08,2.08,0,0,1-2.08-2.08V2.45A2.08,2.08,0,0,1,142.23.38H170.5a2.08,2.08,0,0,1,2.08,2.07V38.73A2.08,2.08,0,0,1,170.5,40.81Zm-28.11-2.24h28V2.62h-28Zm22.08-4.21H148.26c-.68,0-1-.33-1-1a1,1,0,0,1,.29-.73,1,1,0,0,1,.73-.29h16.21a1,1,0,0,1,.73.29,1,1,0,0,1,.3.73C165.5,34,165.15,34.36,164.47,34.36ZM165.2,28a1,1,0,0,1-.73.29H148.26a1,1,0,0,1-1-1c0-.65.34-1,1-1h16.21c.68,0,1,.32,1,1A1,1,0,0,1,165.2,28Zm-.73-5.79H148.26c-.68,0-1-.33-1-1a1,1,0,0,1,.29-.73,1,1,0,0,1,.73-.29h16.21a1,1,0,0,1,.73.29,1,1,0,0,1,.3.73C165.5,21.86,165.15,22.19,164.47,22.19Zm1-7.06s0,0,0,.06l0,.14a.79.79,0,0,1-.71.73,1.26,1.26,0,0,1-.28,0H148.26a1.26,1.26,0,0,1-.28,0,.79.79,0,0,1-.71-.73.59.59,0,0,1,0-.14s0,0,0-.06v-.05s0-.05,0-.07a.68.68,0,0,1,0-.14.79.79,0,0,1,.71-.73,1.18,1.18,0,0,1,.27,0h16.24a1.15,1.15,0,0,1,.26,0,.78.78,0,0,1,.71.73l0,.14s0,0,0,.07v.05Zm-.3-5.41a1,1,0,0,1-.73.29H148.26a1,1,0,0,1-1-1c0-.65.34-1,1-1h16.21c.68,0,1,.32,1,1A1,1,0,0,1,165.2,9.72ZM69.34,33.36h-2v2.52h2Zm-1-2.62A7.33,7.33,0,0,1,61,23.29V9.62a7.38,7.38,0,1,1,14.75,0V23.29A7.33,7.33,0,0,1,68.33,30.74Zm0-26.33A5.11,5.11,0,0,0,63.2,9.62V23.29a5.13,5.13,0,1,0,10.26,0V9.62A5.11,5.11,0,0,0,68.33,4.41ZM78.62,23V21a1,1,0,0,0-2,0V23a8.27,8.27,0,1,1-16.54,0V21a1,1,0,0,0-2,0V23a10.29,10.29,0,1,0,20.58,0ZM61.27,35.89a1,1,0,1,0,0,2H75.39a1,1,0,1,0,0-2m0,0H61.27m69.12,1.7H92.22a2.13,2.13,0,0,1-2.13-2.12V5.72a2.14,2.14,0,0,1,2.13-2.13h38.17a2.14,2.14,0,0,1,2.13,2.13V35.47A2.13,2.13,0,0,1,130.39,37.59Zm-38-2.24h37.93V5.83H92.34Zm36.44-1.74h-35V27.56L102.38,19l3.72,3.71L118,10.83l10.79,10.79ZM96.07,31.37h30.47V22.54L118,14,106.1,25.9l-3.72-3.72-6.31,6.31Zm-73.54,3.8H5.07A4.37,4.37,0,0,1,.38,30.42V22.29c0-3.66,0-7.32,0-11A8.76,8.76,0,0,1,.55,9.22,4.3,4.3,0,0,1,4.89,6H29.82a4.34,4.34,0,0,1,4.53,4.54V30.64a4.3,4.3,0,0,1-4.53,4.53Zm-7.29-2.24H29.82a2.07,2.07,0,0,0,2.28-2.28V10.55a2.1,2.1,0,0,0-2.28-2.29H11.59c-2.23,0-4.46,0-6.68,0A2,2,0,0,0,2.73,9.76a6.41,6.41,0,0,0-.11,1.5V30.42a2.17,2.17,0,0,0,2.46,2.5H15.24Zm31.82.31a2.82,2.82,0,0,1-1.41-.41l-4.39-2.49-5.13-2.91a2.39,2.39,0,0,1-1.27-2.22c0-3.24,0-6.24,0-9.17a2.47,2.47,0,0,1,1.33-2.32q3-1.67,5.92-3.35l3.7-2.1A2.19,2.19,0,0,1,48,8.2a2.35,2.35,0,0,1,1.08,2.08c0,1.7,0,3.4,0,5.1v7c0,2.8,0,5.59,0,8.39A2.33,2.33,0,0,1,48.05,33,2,2,0,0,1,47.06,33.24ZM37.12,25.4l.11.08,5.14,2.91,4.38,2.49.11.05a.61.61,0,0,0,0-.14c0-2.8,0-5.59,0-8.38v-7c0-1.69,0-3.38,0-5.08v0l-3.64,2.07-5.93,3.35c-.17.1-.19.11-.19.35,0,2.94,0,5.95,0,9.2a.55.55,0,0,0,0,.18ZM99.31,7.59a5.61,5.61,0,1,0,5.6,5.6A5.61,5.61,0,0,0,99.31,7.59Zm0,9a3.37,3.37,0,1,1,3.36-3.37A3.37,3.37,0,0,1,99.31,16.56Z"/></g></g></svg>