<svg xmlns="http://www.w3.org/2000/svg" viewBox="0 0 21.754 21.754">
  <defs>
    <style>
      .cls-1 {
        fill: #878787;
      }
    </style>
  </defs>
  <g id="camera-settings-cogwheel" transform="translate(-0.001 0)">
    <path id="Path_197" data-name="Path 197" class="cls-1" d="M19.809,4.426l-2.48-2.48a.471.471,0,0,0-.577-.07l-1.293.783a9.349,9.349,0,0,0-2.009-.833L13.089.358A.471.471,0,0,0,12.632,0H9.124a.471.471,0,0,0-.457.358L8.306,1.826A9.349,9.349,0,0,0,6.3,2.659L5,1.876a.471.471,0,0,0-.577.07l-2.48,2.48A.471.471,0,0,0,1.877,5L2.66,6.3A9.35,9.35,0,0,0,1.827,8.3L.359,8.666A.471.471,0,0,0,0,9.123v3.508a.471.471,0,0,0,.358.457l1.467.361a9.349,9.349,0,0,0,.833,2.009l-.783,1.293a.471.471,0,0,0,.07.577l2.48,2.48a.471.471,0,0,0,.577.07L6.3,19.1a9.351,9.351,0,0,0,2.009.833L8.667,21.4a.471.471,0,0,0,.457.358h3.508a.471.471,0,0,0,.457-.358l.361-1.467a9.35,9.35,0,0,0,2.009-.833l1.293.783a.471.471,0,0,0,.577-.07l2.48-2.48a.471.471,0,0,0,.07-.577L19.1,15.458a9.351,9.351,0,0,0,.833-2.009l1.467-.361a.471.471,0,0,0,.358-.457V9.123a.471.471,0,0,0-.358-.457l-1.467-.361A9.35,9.35,0,0,0,19.1,6.3L19.879,5A.471.471,0,0,0,19.809,4.426ZM10.878,15.785a4.908,4.908,0,1,1,4.908-4.908A4.908,4.908,0,0,1,10.878,15.785Z"/>
  </g>
</svg>
