<svg xmlns="http://www.w3.org/2000/svg" viewBox="0 0 12.39 12.34"><defs><style>.cls-1{fill:#bbb;}</style></defs><title>Asset 7</title><g id="Layer_2" data-name="Layer 2"><g id="Layer_1-2" data-name="Layer 1"><path class="cls-1" d="M0,2.1A2.1,2.1,0,1,1,2.1,4.2,2.1,2.1,0,0,1,0,2.1Z"/><path class="cls-1" d="M11.1,9.88,1.88,12.31a1.09,1.09,0,0,1-1.31-.75,1,1,0,0,1,.73-1.29l9.22-2.42a1.07,1.07,0,0,1,1.31.74A1,1,0,0,1,11.1,9.88Z"/><path class="cls-1" d="M10.29,4.2a2.1,2.1,0,1,1,2.1-2.1A2.1,2.1,0,0,1,10.29,4.2Z"/></g></g></svg>