<svg xmlns="http://www.w3.org/2000/svg" viewBox="0 0 32 32"><defs><style>.cls-1{fill:#404185;}</style></defs><title>Asset 67</title><g id="Layer_2" data-name="Layer 2"><g id="REACT_gray" data-name="REACT gray"><path class="cls-1" d="M16,1A15,15,0,1,1,1,16,15,15,0,0,1,16,1m0-1A16,16,0,1,0,32,16,16,16,0,0,0,16,0Z"/><path class="cls-1" d="M9.31,12.23a2.29,2.29,0,1,1,2.29,2.29A2.28,2.28,0,0,1,9.31,12.23Z"/><path class="cls-1" d="M21.39,20.7l-10,2.64a1.16,1.16,0,0,1-1.42-.82,1.11,1.11,0,0,1,.79-1.39l10-2.64a1.17,1.17,0,0,1,1.42.81A1.12,1.12,0,0,1,21.39,20.7Z"/><path class="cls-1" d="M20.51,14.52a2.29,2.29,0,1,1,2.29-2.29A2.3,2.3,0,0,1,20.51,14.52Z"/></g></g></svg>