<svg xmlns="http://www.w3.org/2000/svg" xmlns:xlink="http://www.w3.org/1999/xlink" viewBox="0 0 30.51 30.42"><defs><style>.cls-1,.cls-2,.cls-3,.cls-4,.cls-5{stroke:#fff;stroke-miterlimit:10;stroke-width:0.3px;}.cls-1{fill:url(#linear-gradient);}.cls-2{fill:url(#linear-gradient-2);}.cls-3{fill:url(#linear-gradient-3);}.cls-4{fill:url(#linear-gradient-4);}.cls-5{fill:url(#linear-gradient-5);}</style><linearGradient id="linear-gradient" x1="0.21" y1="15.21" x2="30.3" y2="15.21" gradientUnits="userSpaceOnUse"><stop offset="0" stop-color="#3e52a7"/><stop offset="1" stop-color="#3e52a7"/></linearGradient><linearGradient id="linear-gradient-2" x1="0.99" y1="13.31" x2="25.82" y2="13.31" xlink:href="#linear-gradient"/><linearGradient id="linear-gradient-3" x1="16.28" y1="7.23" x2="30.3" y2="7.23" xlink:href="#linear-gradient"/><linearGradient id="linear-gradient-4" x1="0.21" y1="23.24" x2="14.24" y2="23.24" xlink:href="#linear-gradient"/><linearGradient id="linear-gradient-5" x1="20.08" y1="24.63" x2="29.63" y2="24.63" xlink:href="#linear-gradient"/></defs><title>Asset 1</title><g id="Layer_2" data-name="Layer 2"><g id="Layer_1-2" data-name="Layer 1"><path class="cls-1" d="M2.6,5.61c.42.4.73.67,1,1L19.56,22.51a3.81,3.81,0,0,0,.78.73c.27.13.85.18.92.06a1.43,1.43,0,0,0,.09-1c-.08-.27-.41-.47-.64-.7q-8-8.05-16.11-16.1a9.15,9.15,0,0,0-1.26-.88l1.2-1.13a7.94,7.94,0,0,0,.75,1q8.11,8.15,16.27,16.28c.22.22.42.53.69.63a1.09,1.09,0,0,0,.94,0,1,1,0,0,0,.06-.92,2.93,2.93,0,0,0-.71-.79q-8-8-16-16c-.3-.29-.57-.61-.94-1a3.19,3.19,0,0,1,3.24.84C13.88,8.58,19,13.63,24.14,18.67c.31.3,1.13.55,1.38.37.67-.49.06-.95-.31-1.35-.13-.15-.28-.28-.42-.42C19.91,12.42,15,7.62,10.17,2.71A4.61,4.61,0,0,0,6,1,3.2,3.2,0,0,0,3.74,2c-.6.69-1.29,1.31-1.93,2-1.08,1.09-1.1,4.12,0,5.2L17.48,25c.23.23.44.54.71.61a1.16,1.16,0,0,0,.93-.18c.14-.11.11-.58,0-.82a2.64,2.64,0,0,0-.64-.7c-5-5.08-10-10.19-15.13-15.23A3,3,0,0,1,2.6,5.61Zm17.69-.93a24.16,24.16,0,0,0,1.78,1.91c.26.22.75.16,1.13.22,0-.41.09-.95-.12-1.21A16.42,16.42,0,0,0,21.31,4l1.54-1.81,5.53,5.56-5.63,5.54.78,1L30.3,7.45,23,.21,16.28,7l.79.86L18.25,7a15.85,15.85,0,0,0,1.57,1.78c.27.24.8.18,1.21.25-.05-.41,0-.94-.18-1.21A18.45,18.45,0,0,0,18.94,6ZM.21,22.87l7.32,7.34,6.71-6.67-1-.94L7.82,28.18,2.37,22.76l1.45-1.57a13.72,13.72,0,0,0,1.53,1.69c.35.27,1.1.54,1.35.36.65-.47.11-1-.28-1.35-.54-.52-1.09-1-1.74-1.61L6.05,19A18.88,18.88,0,0,0,7.69,20.8c.28.24.79.22,1.2.32-.05-.45,0-1-.18-1.31A14.09,14.09,0,0,0,7,18.25l.78-1.12-.92-.87Zm28.46,6.37c1,0,1.08-.52.86-1.26-.72-2.35-1.39-4.71-2.16-7-.13-.37-.65-.62-1-.92-.13.47-.44,1-.36,1.39.2,1.05.59,2.05.89,3.08a1.94,1.94,0,0,1-2.12,2.26c-1.23-.28-2.45-.63-3.7-.85-.3-.06-.67.3-1,.47.23.3.4.74.7.89a7.12,7.12,0,0,0,1.6.43Z"/><path class="cls-2" d="M2.6,5.61a3,3,0,0,0,.75,3.07c5.08,5,10.09,10.15,15.13,15.23a2.64,2.64,0,0,1,.64.7c.11.24.14.71,0,.82a1.16,1.16,0,0,1-.93.18c-.27-.07-.48-.38-.71-.61L1.78,9.17C.71,8.09.73,5.06,1.81,4c.64-.65,1.33-1.27,1.93-2A3.2,3.2,0,0,1,6,1a4.61,4.61,0,0,1,4.15,1.69C15,7.62,19.91,12.42,24.79,17.27c.14.14.29.27.42.42.37.4,1,.86.31,1.35-.25.18-1.07-.07-1.38-.37C19,13.63,13.88,8.58,8.82,3.46a3.19,3.19,0,0,0-3.24-.84c.37.4.64.72.94,1q8,8,16,16a2.93,2.93,0,0,1,.71.79,1,1,0,0,1-.06.92,1.09,1.09,0,0,1-.94,0c-.27-.1-.47-.41-.69-.63Q13.42,12.63,5.29,4.5a7.94,7.94,0,0,1-.75-1L3.34,4.58a9.15,9.15,0,0,1,1.26.88q8.07,8,16.11,16.1c.23.23.56.43.64.7a1.43,1.43,0,0,1-.09,1c-.07.12-.65.07-.92-.06a3.81,3.81,0,0,1-.78-.73L3.62,6.57C3.33,6.28,3,6,2.6,5.61Z"/><path class="cls-3" d="M20.29,4.68,18.94,6a18.45,18.45,0,0,1,1.91,1.74c.23.27.13.8.18,1.21-.41-.07-.94,0-1.21-.25A15.85,15.85,0,0,1,18.25,7l-1.18.89L16.28,7,23,.21,30.3,7.45l-6.77,6.79-.78-1,5.63-5.54L22.85,2.18,21.31,4A16.42,16.42,0,0,1,23.08,5.6c.21.26.09.8.12,1.21-.38-.06-.87,0-1.13-.22A24.16,24.16,0,0,1,20.29,4.68Z"/><path class="cls-4" d="M.21,22.87l6.64-6.61.92.87L7,18.25a14.09,14.09,0,0,1,1.72,1.56c.23.3.13.86.18,1.31C8.48,21,8,21,7.69,20.8A18.88,18.88,0,0,1,6.05,19L4.68,20.28c.65.6,1.2,1.09,1.74,1.61.39.39.93.88.28,1.35-.25.18-1-.09-1.35-.36a13.72,13.72,0,0,1-1.53-1.69L2.37,22.76l5.45,5.42,5.47-5.58,1,.94L7.53,30.21Z"/><path class="cls-5" d="M28.67,29.24l-6.29-1.55a7.12,7.12,0,0,1-1.6-.43c-.3-.15-.47-.59-.7-.89.34-.17.71-.53,1-.47,1.25.22,2.47.57,3.7.85a1.94,1.94,0,0,0,2.12-2.26c-.3-1-.69-2-.89-3.08-.08-.42.23-.92.36-1.39.34.3.86.55,1,.92.77,2.33,1.44,4.69,2.16,7C29.75,28.72,29.67,29.25,28.67,29.24Z"/></g></g></svg>