<svg xmlns="http://www.w3.org/2000/svg" viewBox="0 0 20 18.7"><defs><style>.cls-1{fill:#bbb;fill-rule:evenodd;}</style></defs><title>Asset 9</title><g id="Layer_2" data-name="Layer 2"><g id="Layer_1-2" data-name="Layer 1"><path class="cls-1" d="M20,8.52c-.05.3-.08.6-.15.89a3.31,3.31,0,0,1-2.62,2.68,7.18,7.18,0,0,1-1,.1H14.32c.11.31.23.6.32.89a6.84,6.84,0,0,1,.24,3.59,2.43,2.43,0,0,1-1.17,1.73,2.51,2.51,0,0,1-1.74.24.84.84,0,0,1-.57-.56c-.24-.58-.47-1.18-.7-1.78a19,19,0,0,0-1.57-3.43A5.13,5.13,0,0,0,7.8,11.49c-.36-.25-.74-.46-1.11-.7-.06,0-.11-.09-.18,0s-.11,0-.17,0H0V1.11H6.53v.52l.08,0c.5,0,1,0,1.5,0a.74.74,0,0,0,.29-.08C8.93,1.25,9.48.93,10,.6a2.11,2.11,0,0,1,.86-.36C11.5.16,12.12.08,12.76,0a19.39,19.39,0,0,1,3.73.11,3,3,0,0,1,2,1.06,3.42,3.42,0,0,1,.69,1.45,28.9,28.9,0,0,1,.71,3.57L20,7.3Zm-7.92,2.39h2.66c.61,0,1.2,0,1.81,0a2.07,2.07,0,0,0,1.26-.44,2.55,2.55,0,0,0,.88-1.78,10,10,0,0,0-.18-2.89c-.17-1-.41-2-.63-3a1.67,1.67,0,0,0-1.4-1.33,6.34,6.34,0,0,0-1.15-.14,19.86,19.86,0,0,0-4.08.14,1,1,0,0,0-.35.09L9.07,2.64a1.82,1.82,0,0,1-1,.28c-.46,0-.92,0-1.39,0-.16,0-.19.05-.19.2,0,1.24,0,2.47,0,3.71V9.17c0,.09,0,.14.09.19.54.28,1.07.55,1.58.86a6.15,6.15,0,0,1,1.6,1.41,10.53,10.53,0,0,1,1.44,2.55c.42,1,.81,2.07,1.21,3.11a.16.16,0,0,0,.19.12.93.93,0,0,0,.86-.63,4.16,4.16,0,0,0,.2-1,6.7,6.7,0,0,0-1.17-4.2C12.39,11.39,12.25,11.16,12.08,10.91Z"/></g></g></svg>