<svg xmlns="http://www.w3.org/2000/svg" viewBox="0 0 19.31 19.19"><defs><style>.cls-1{fill:#bbb;}</style></defs><title>Asset 14</title><g id="Layer_2" data-name="Layer 2"><g id="Layer_1-2" data-name="Layer 1"><path class="cls-1" d="M16.25,0a3.05,3.05,0,1,1-3,3.05A3.06,3.06,0,0,1,16.25,0Z"/><path class="cls-1" d="M16.36,13.41a1.69,1.69,0,1,1,2,2.72,14.6,14.6,0,0,1-8.76,3.06A13.84,13.84,0,0,1,.82,16.05a1.7,1.7,0,0,1,2.24-2.56C3.31,13.7,9.23,18.66,16.36,13.41Z"/><path class="cls-1" d="M3.05,0A3.05,3.05,0,1,1,0,3.05,3.06,3.06,0,0,1,3.05,0Z"/></g></g></svg>