<svg xmlns="http://www.w3.org/2000/svg" viewBox="0 0 20 20.13"><defs><style>.cls-1{fill:#bbb;fill-rule:evenodd;}</style></defs><title>Asset 17</title><g id="Layer_2" data-name="Layer 2"><g id="Layer_1-2" data-name="Layer 1"><path class="cls-1" d="M10,13h8.89c1.12,0,1.33.31.84,1.24a10.38,10.38,0,0,1-9.65,5.84A10.31,10.31,0,0,1,.35,14.45C-.28,13.28-.1,13,1.23,13H10Z"/><polygon class="cls-1" points="3.71 0 4.85 2.32 7.41 2.69 5.56 4.5 6 7.05 3.71 5.84 1.42 7.05 1.85 4.5 0 2.69 2.56 2.32 3.71 0"/><polygon class="cls-1" points="16.29 0 17.44 2.32 20 2.69 18.15 4.5 18.59 7.05 16.29 5.85 14 7.05 14.44 4.5 12.59 2.69 15.15 2.32 16.29 0"/></g></g></svg>