<svg xmlns="http://www.w3.org/2000/svg" viewBox="0 0 55.16 41.31"><defs><style>.cls-1{fill:#bbb;}.cls-2{fill:#fff;}</style></defs><title>Asset 5</title><g id="Layer_2" data-name="Layer 2"><g id="Layer_1-2" data-name="Layer 1"><path class="cls-1" d="M4.09,20.84v-.36c.14-.21.29-.38.41-.59a28.09,28.09,0,0,1,4.57-6.15,26,26,0,0,1,38.3,1.42c1.37,1.66,2.48,3.54,3.71,5.32v.36c-.14.2-.3.37-.42.58a27.75,27.75,0,0,1-4.57,6.16,26,26,0,0,1-38.3-1.44C6.42,24.49,5.32,22.61,4.09,20.84Z"/><path class="cls-2" d="M38.72,13.5A11.88,11.88,0,0,1,28,29.18a11.59,11.59,0,0,1-8.55-3.34C16,22.41,15.1,18.27,16.48,13.49a21.72,21.72,0,0,0-7.09,6.88c-.12.18,0,.63.18.85C15,28.69,22.24,32,31.44,30.54c6.1-1,10.77-4.37,14.25-9.44a.85.85,0,0,0,.05-.79A22.09,22.09,0,0,0,38.72,13.5Z"/><path class="cls-2" d="M23.29,11.6a4.38,4.38,0,1,0,4.28,4.47A4.39,4.39,0,0,0,23.29,11.6Z"/><polygon class="cls-1" points="55.16 41.31 45.89 41.31 45.89 38.62 52.47 38.62 52.47 32.03 55.16 32.03 55.16 41.31"/><polygon class="cls-1" points="9.28 41.31 0 41.31 0 32.03 2.69 32.03 2.69 38.62 9.28 38.62 9.28 41.31"/><polygon class="cls-1" points="2.69 9.28 0 9.28 0 0 9.28 0 9.28 2.69 2.69 2.69 2.69 9.28"/><polygon class="cls-1" points="55.16 9.28 52.47 9.28 52.47 2.69 45.89 2.69 45.89 0 55.16 0 55.16 9.28"/></g></g></svg>