<svg xmlns="http://www.w3.org/2000/svg" viewBox="0 0 28.43 21.29"><defs><style>.cls-1{fill:#404185;}</style></defs><title>Asset 15</title><g id="Layer_2" data-name="Layer 2"><g id="REACT_gray" data-name="REACT gray"><path class="cls-1" d="M26.11,11a2.1,2.1,0,0,1,.22-.3v-.19c-.64-.91-1.21-1.88-1.91-2.73A13.38,13.38,0,0,0,4.68,7.08a14.37,14.37,0,0,0-2.36,3.17,3.21,3.21,0,0,1-.21.3v.19c.63.91,1.2,1.88,1.91,2.73a13.39,13.39,0,0,0,19.74.75A14.31,14.31,0,0,0,26.11,11ZM12,6A2.26,2.26,0,1,1,9.68,8.16,2.25,2.25,0,0,1,12,6Zm11.54,4.9a10.81,10.81,0,0,1-7.35,4.86c-4.74.77-8.47-1-11.27-4.8-.08-.11-.15-.35-.09-.44A11.27,11.27,0,0,1,8.49,7,6,6,0,0,0,10,13.32,6,6,0,0,0,14.41,15,6.12,6.12,0,0,0,20,7a11.36,11.36,0,0,1,3.62,3.51A.46.46,0,0,1,23.55,10.88Z"/><polygon class="cls-1" points="27.04 19.9 23.65 19.9 23.65 21.29 28.43 21.29 28.43 16.51 27.04 16.51 27.04 19.9"/><polygon class="cls-1" points="1.39 16.51 0 16.51 0 21.29 4.78 21.29 4.78 19.9 1.39 19.9 1.39 16.51"/><polygon class="cls-1" points="1.39 1.39 4.78 1.39 4.78 0 0 0 0 4.78 1.39 4.78 1.39 1.39"/><polygon class="cls-1" points="23.65 0 23.65 1.39 27.04 1.39 27.04 4.78 28.43 4.78 28.43 0 23.65 0"/></g></g></svg>