<svg xmlns="http://www.w3.org/2000/svg" xmlns:xlink="http://www.w3.org/1999/xlink" viewBox="0 0 38.72 25.75"><defs><style>.cls-1{fill:#fcfafb;stroke-miterlimit:10;stroke-width:0.75px;stroke:url(#linear-gradient);}</style><linearGradient id="linear-gradient" y1="12.87" x2="38.72" y2="12.87" gradientUnits="userSpaceOnUse"><stop offset="0" stop-color="#3e52a7"/><stop offset="1" stop-color="#3e52a7"/></linearGradient></defs><title>Asset 49</title><g id="Layer_2" data-name="Layer 2"><g id="REACT_gray" data-name="REACT gray"><path class="cls-1" d="M20.67,22.46a3,3,0,0,0-1.93-2.7,22.49,22.49,0,0,0-3.16-1.14,13.74,13.74,0,0,1-2-.77.9.9,0,0,1-.54-.75c0-.4,0-.81,0-1.22l.14,0a10.8,10.8,0,0,0,4-1.5,4.68,4.68,0,0,0,1.43-1.3.88.88,0,0,0-.21-1.24,7.34,7.34,0,0,1-1-.9,5.8,5.8,0,0,1-1.54-4.17c0-.68,0-1.35,0-2A3.88,3.88,0,0,0,13.41,1,5.92,5.92,0,0,0,11.29.56c-.25,0-.49,0-.74,0s-.49,0-.74,0A5.92,5.92,0,0,0,7.69,1,3.88,3.88,0,0,0,5.17,4.72c0,.68,0,1.35,0,2a5.8,5.8,0,0,1-1.54,4.17,6.75,6.75,0,0,1-.95.9.87.87,0,0,0-.2,1.24,4.64,4.64,0,0,0,1.42,1.3,10.8,10.8,0,0,0,4,1.5l.14,0c0,.41,0,.82,0,1.22a.88.88,0,0,1-.54.75,13.62,13.62,0,0,1-1.95.77,21.62,21.62,0,0,0-3.16,1.14,3,3,0,0,0-1.94,2.7,1,1,0,0,1,0,.23v1.85a1.27,1.27,0,0,0,1.41.83c1.62,0,3.24,0,4.86,0h7.8c1.62,0,3.25,0,4.87,0a1.28,1.28,0,0,0,1.41-.83V22.69A1,1,0,0,1,20.67,22.46Zm17.67,1.81a1,1,0,0,1-1.1,1.1H22a1.84,1.84,0,0,0,.15-.28l0-.06v-2.3l0-.1a.58.58,0,0,1,0-.1,3.71,3.71,0,0,0-1.67-3.1c.51-.18,1-.34,1.55-.48s1.25-.38,1.86-.6a3.12,3.12,0,0,0,.72-.43.86.86,0,0,0,.33-.7A2.82,2.82,0,0,0,24.25,15a8.05,8.05,0,0,1-1.39-3.39c-.05-.19-.11-.29-.32-.31a1.17,1.17,0,0,1-1-.85,10.2,10.2,0,0,1-.45-2c-.09-.75.17-1,1.07-1.17,0-.21,0-.43,0-.64a10.06,10.06,0,0,1,.14-3A2.74,2.74,0,0,1,25,1.39l.77,0c.27-.77.53-1,1.35-1A7.06,7.06,0,0,1,32,2.3a4.76,4.76,0,0,1,1.33,4.52c0,.16,0,.32-.08.47a.2.2,0,0,0,0,.08l.25,0c.6,0,.91.33.91.94a5.83,5.83,0,0,1-.51,2.39,1,1,0,0,1-1,.62H32.5c-.19.69-.37,1.38-.59,2.07a6.44,6.44,0,0,1-1.15,2.16.52.52,0,0,0-.11.32c0,.4,0,.81,0,1.21a.93.93,0,0,0,.51.94,7.65,7.65,0,0,0,1.17.53c.48.17,1,.3,1.47.43a13.72,13.72,0,0,1,3,1.19,2.6,2.6,0,0,1,1.46,2.26C38.33,23.07,38.34,23.67,38.34,24.27Z"/></g></g></svg>