<svg xmlns="http://www.w3.org/2000/svg" viewBox="0 0 152.805 133.884">
  <defs>
    <style>
      .cls-1 {
        fill: #bbb;
      }
    </style>
  </defs>
  <g id="image" transform="translate(-0.001 -0.5)">
    <path id="Path_159" data-name="Path 159" class="cls-1" d="M195.279,125.377a14.53,14.53,0,1,0-14.53-14.53,14.547,14.547,0,0,0,14.53,14.53Zm0-20.539a6.008,6.008,0,1,1-6.008,6.009,6.015,6.015,0,0,1,6.008-6.009Zm0,0" transform="translate(-126.156 -65.997)"/>
    <path id="Path_160" data-name="Path 160" class="cls-1" d="M147.226.5H5.58A5.647,5.647,0,0,0,0,6.2V128.684a5.647,5.647,0,0,0,5.58,5.7H147.226a5.647,5.647,0,0,0,5.58-5.7V6.2a5.647,5.647,0,0,0-5.58-5.7Zm-3.374,9.147V82.03L115.693,53.262a4.645,4.645,0,0,0-6.657,0L69.211,93.951,43.772,67.963a4.639,4.639,0,0,0-6.661,0L8.954,96.726V9.647ZM8.954,125.237V109.661L40.44,77.495l25.438,25.987a4.636,4.636,0,0,0,6.661,0L112.366,62.8l31.487,32.167v30.271Zm0,0"/>
  </g>
</svg>
