<svg xmlns="http://www.w3.org/2000/svg" xmlns:xlink="http://www.w3.org/1999/xlink" viewBox="0 0 38.737 31.147">
  <defs>
    <style>
      .cls-1, .cls-3, .cls-5 {
        fill: none;
      }

      .cls-2 {
        clip-path: url(#clip-path);
      }

      .cls-3, .cls-5 {
        stroke: #d6d6d6;
      }

      .cls-4 {
        clip-path: url(#clip-path-2);
      }

      .cls-5 {
        stroke-width: 0.75px;
      }

      .cls-6 {
        clip-path: url(#clip-path-3);
      }

      .cls-7 {
        clip-path: url(#clip-path-5);
      }

      .cls-8 {
        clip-path: url(#clip-path-7);
      }

      .cls-9 {
        clip-path: url(#clip-path-9);
      }

      .cls-10 {
        clip-path: url(#clip-path-11);
      }
    </style>
    <clipPath id="clip-path">
      <path id="Path_47" data-name="Path 47" class="cls-1" d="M2.286-34.345A1.92,1.92,0,0,0,.375-32.434h0V-5.764A1.9,1.9,0,0,0,2.286-3.871H36.529a1.919,1.919,0,0,0,1.91-1.9h0V-32.434a1.929,1.929,0,0,0-1.91-1.911H2.286Z" transform="translate(-0.375 34.345)"/>
    </clipPath>
    <clipPath id="clip-path-2">
      <path id="Path_49" data-name="Path 49" class="cls-1" d="M0-34.72H38.737V-3.573H0Z" transform="translate(0 34.72)"/>
    </clipPath>
    <clipPath id="clip-path-3">
      <path id="Path_51" data-name="Path 51" class="cls-1" d="M2.605-32.144,2.668-5.663H36.695V-32.144Z" transform="translate(-2.605 32.144)"/>
    </clipPath>
    <clipPath id="clip-path-5">
      <path id="Path_55" data-name="Path 55" class="cls-1" d="M15.167-16.437,11.785-19.8l-7.67,7.67V-6.7h31.4L35.477-17.46l-9.634-9.634Z" transform="translate(-4.115 27.094)"/>
    </clipPath>
    <clipPath id="clip-path-7">
      <path id="Path_59" data-name="Path 59" class="cls-1" d="M15.4-13.3l-3.337-3.328L6.4-10.974,6.355-8.382H33.689V-16.3l-7.66-7.661Z" transform="translate(-6.355 23.965)"/>
    </clipPath>
    <clipPath id="clip-path-9">
      <path id="Path_63" data-name="Path 63" class="cls-1" d="M3.945-25.391A5.033,5.033,0,0,0,8.969-20.35h0a5.033,5.033,0,0,0,5.042-5.024h0v-.009a5.023,5.023,0,0,0-5-5h0l-.027-.036H8.979a5.033,5.033,0,0,0-5.035,5.024" transform="translate(-3.945 30.415)"/>
    </clipPath>
    <clipPath id="clip-path-11">
      <path id="Path_67" data-name="Path 67" class="cls-1" d="M9.2-28.156a3.025,3.025,0,0,0-3.014,3.034h0a3.023,3.023,0,0,0,3.032,3.013h0v-.045a3.023,3.023,0,0,0,3.014-2.987h0a3.024,3.024,0,0,0-3.024-3.015H9.2" transform="translate(-6.185 28.156)"/>
    </clipPath>
  </defs>
  <g id="Group_59" data-name="Group 59" transform="translate(0 34.72)">
    <g id="Group_36" data-name="Group 36" class="cls-2" transform="translate(0.336 -34.384)">
      <g id="Group_35" data-name="Group 35" transform="translate(-0.336 -0.336)">
        <path id="Path_46" data-name="Path 46" class="cls-3" d="M-.375-17.36H38.362V13.787H-.375Z" transform="translate(0.375 17.36)"/>
      </g>
    </g>
    <g id="Group_38" data-name="Group 38" class="cls-4" transform="translate(0 -34.72)">
      <g id="Group_37" data-name="Group 37" transform="translate(0.337 0.336)">
        <path id="Path_48" data-name="Path 48" class="cls-5" d="M-4.147-3.5H-38.389A1.9,1.9,0,0,1-40.3-5.388V-32.059a1.919,1.919,0,0,1,1.911-1.911H-4.147a1.929,1.929,0,0,1,1.911,1.911V-5.4A1.919,1.919,0,0,1-4.147-3.5Z" transform="translate(40.3 33.97)"/>
      </g>
    </g>
    <g id="Group_40" data-name="Group 40" class="cls-6" transform="translate(2.337 -32.409)">
      <g id="Group_39" data-name="Group 39" transform="translate(-2.337 -2.311)">
        <path id="Path_50" data-name="Path 50" class="cls-3" d="M-2.6-17.335H36.132V13.812H-2.6Z" transform="translate(2.605 17.335)"/>
      </g>
    </g>
    <g id="Group_42" data-name="Group 42" class="cls-4" transform="translate(0 -34.72)">
      <g id="Group_41" data-name="Group 41" transform="translate(2.337 2.31)">
        <path id="Path_52" data-name="Path 52" class="cls-5" d="M-.007-3.038H34.02V-29.52H-.07Z" transform="translate(0.07 29.52)"/>
      </g>
    </g>
    <g id="Group_44" data-name="Group 44" class="cls-7" transform="translate(3.692 -27.879)">
      <g id="Group_43" data-name="Group 43" transform="translate(-3.692 -6.841)">
        <path id="Path_54" data-name="Path 54" class="cls-3" d="M-4.115-18.99H34.622V12.157H-4.115Z" transform="translate(4.115 18.99)"/>
      </g>
    </g>
    <g id="Group_46" data-name="Group 46" class="cls-4" transform="translate(0 -34.72)">
      <g id="Group_45" data-name="Group 45" transform="translate(3.691 6.841)">
        <path id="Path_56" data-name="Path 56" class="cls-5" d="M-3.6-2.339H-35V-7.766l7.67-7.67,3.382,3.364,10.675-10.657,9.635,9.635Z" transform="translate(35 22.729)"/>
      </g>
    </g>
    <g id="Group_48" data-name="Group 48" class="cls-8" transform="translate(5.701 -25.072)">
      <g id="Group_47" data-name="Group 47" transform="translate(-5.701 -9.648)">
        <path id="Path_58" data-name="Path 58" class="cls-3" d="M-6.355-19.44H32.382V11.707H-6.355Z" transform="translate(6.355 19.44)"/>
      </g>
    </g>
    <g id="Group_50" data-name="Group 50" class="cls-4" transform="translate(0 -34.72)">
      <g id="Group_49" data-name="Group 49" transform="translate(5.701 9.648)">
        <path id="Path_60" data-name="Path 60" class="cls-5" d="M0-1.787H27.334V-9.709L19.673-17.37,9.043-6.7,5.706-10.032.045-4.38Z" transform="translate(0 17.37)"/>
      </g>
    </g>
    <g id="Group_52" data-name="Group 52" class="cls-9" transform="translate(3.539 -30.858)">
      <g id="Group_51" data-name="Group 51" transform="translate(-3.539 -3.862)">
        <path id="Path_62" data-name="Path 62" class="cls-3" d="M-3.945-9.915H34.792V21.232H-3.945Z" transform="translate(3.945 9.915)"/>
      </g>
    </g>
    <g id="Group_54" data-name="Group 54" class="cls-4" transform="translate(0 -34.72)">
      <g id="Group_53" data-name="Group 53" transform="translate(3.539 3.862)">
        <path id="Path_64" data-name="Path 64" class="cls-5" d="M-.578,0A5.034,5.034,0,0,0-5.62,5.025,5.033,5.033,0,0,0-.6,10.065,5.033,5.033,0,0,0,4.445,5.042V5.033a5.024,5.024,0,0,0-5-5Z" transform="translate(5.62 0)"/>
      </g>
    </g>
    <g id="Group_56" data-name="Group 56" class="cls-10" transform="translate(5.549 -28.831)">
      <g id="Group_55" data-name="Group 55" transform="translate(-5.549 -5.889)">
        <path id="Path_66" data-name="Path 66" class="cls-3" d="M291.185,357.655h38.737V388.8H291.185Z" transform="translate(-291.185 -357.655)"/>
      </g>
    </g>
    <g id="Group_58" data-name="Group 58" class="cls-4" transform="translate(0 -34.72)">
      <g id="Group_57" data-name="Group 57" transform="translate(5.549 5.889)">
        <path id="Path_68" data-name="Path 68" class="cls-5" d="M-.348-.694A3.023,3.023,0,0,1-3.38-3.707,3.024,3.024,0,0,1-.366-6.74,3.024,3.024,0,0,1,2.666-3.726,3.023,3.023,0,0,1-.348-.738Z" transform="translate(3.38 6.74)"/>
      </g>
    </g>
  </g>
</svg>
