<svg id="information" xmlns="http://www.w3.org/2000/svg" viewBox="0 0 19.492 19.492">
  <defs>
    <style>
      .cls-1 {
        fill: #bbb;
      }
    </style>
  </defs>
  <g id="Group_239" data-name="Group 239">
    <g id="Group_238" data-name="Group 238">
      <path id="Path_652" data-name="Path 652" class="cls-1" d="M192.089,107.257a1.943,1.943,0,0,0,.107.2c.036.053.089.107.125.16a1.606,1.606,0,0,0,.178.16.6.6,0,0,0,.214.107.882.882,0,0,0,.232.071,1.1,1.1,0,0,0,.232.018,1.016,1.016,0,0,0,.232-.018.638.638,0,0,0,.2-.071h.018a1.329,1.329,0,0,0,.214-.125,1.153,1.153,0,0,0,.16-.143l.018-.018a.979.979,0,0,0,.125-.16.557.557,0,0,0,.089-.178c0-.018,0-.018.018-.036a1.155,1.155,0,0,0,.071-.232,1.515,1.515,0,0,0,0-.463,1.656,1.656,0,0,0-.071-.232,1.011,1.011,0,0,0-.214-.321l-.036-.036a1.558,1.558,0,0,0-.178-.143c-.071-.036-.125-.071-.2-.107a1,1,0,0,0-.214-.071,1.1,1.1,0,0,0-.232-.018,1.016,1.016,0,0,0-.232.018,1,1,0,0,0-.214.071h-.018a1.94,1.94,0,0,0-.2.107,1.559,1.559,0,0,0-.178.143,1.152,1.152,0,0,0-.143.16,1.943,1.943,0,0,0-.107.2,1,1,0,0,0-.071.214,1.1,1.1,0,0,0-.018.232,1.016,1.016,0,0,0,.018.232A1.617,1.617,0,0,0,192.089,107.257Z" transform="translate(-183.448 -100.896)"/>
      <path id="Path_653" data-name="Path 653" class="cls-1" d="M180.807,185.629h-.41v-4.365a.46.46,0,0,0-.463-.463h-1.871a.46.46,0,0,0-.463.463v.962a.46.46,0,0,0,.463.463h.374v2.958h-.374a.46.46,0,0,0-.463.463v.962a.46.46,0,0,0,.463.463h2.744a.46.46,0,0,0,.463-.463v-.962A.476.476,0,0,0,180.807,185.629Z" transform="translate(-169.689 -172.747)"/>
      <path id="Path_654" data-name="Path 654" class="cls-1" d="M9.746,0a9.746,9.746,0,1,0,9.746,9.746A9.748,9.748,0,0,0,9.746,0Zm0,18.209a8.463,8.463,0,1,1,8.463-8.463A8.471,8.471,0,0,1,9.746,18.209Z"/>
    </g>
  </g>
</svg>
