<svg xmlns="http://www.w3.org/2000/svg" viewBox="0 0 20 18.7"><defs><style>.cls-1{fill:#bbb;fill-rule:evenodd;}</style></defs><title>Asset 8</title><g id="Layer_2" data-name="Layer 2"><g id="Layer_1-2" data-name="Layer 1"><path class="cls-1" d="M20,11.4l-.12,1.07A28.9,28.9,0,0,1,19.17,16a3.42,3.42,0,0,1-.69,1.45,3,3,0,0,1-2,1.06,20.23,20.23,0,0,1-3.73.11c-.64,0-1.26-.13-1.89-.2A2.11,2.11,0,0,1,10,18.1c-.53-.33-1.08-.65-1.61-1a.74.74,0,0,0-.29-.08c-.5,0-1,0-1.5,0l-.08,0v.52H0V7.88H6.34c.06,0,.14,0,.17,0s.12,0,.18,0c.37-.23.75-.44,1.11-.69A5.13,5.13,0,0,0,9.13,5.83,19,19,0,0,0,10.7,2.4c.23-.6.46-1.2.7-1.78A.84.84,0,0,1,12,.06,2.46,2.46,0,0,1,13.71.3,2.41,2.41,0,0,1,14.88,2a6.84,6.84,0,0,1-.24,3.59c-.09.29-.21.58-.32.89h.19c.56,0,1.12,0,1.68,0a7.18,7.18,0,0,1,1,.1,3.31,3.31,0,0,1,2.62,2.68c.07.29.1.59.15.89ZM12.54,7.1a6.7,6.7,0,0,0,1.17-4.2,4.16,4.16,0,0,0-.2-1,.93.93,0,0,0-.86-.63.16.16,0,0,0-.19.12c-.4,1-.79,2.08-1.21,3.11A10.53,10.53,0,0,1,9.81,7.07a6.34,6.34,0,0,1-1.6,1.41c-.51.31-1,.58-1.58.85-.09.06-.09.11-.09.2v2.34c0,1.24,0,2.47,0,3.71,0,.15,0,.2.19.2H8.11a1.82,1.82,0,0,1,1,.28q.91.56,1.83,1.08a.83.83,0,0,0,.35.1,20.59,20.59,0,0,0,4.08.14,6.34,6.34,0,0,0,1.15-.14,1.67,1.67,0,0,0,1.4-1.33c.22-1,.46-2,.63-3A10,10,0,0,0,18.69,10a2.51,2.51,0,0,0-.88-1.78,2,2,0,0,0-1.26-.44c-.61,0-1.2,0-1.81,0H12.08C12.25,7.54,12.39,7.31,12.54,7.1Z"/></g></g></svg>