<svg xmlns="http://www.w3.org/2000/svg" viewBox="0 0 18.575 22">
  <defs>
    <style>
      .cls-1 {
        fill: #bbb;
      }
    </style>
  </defs>
  <g id="lock" transform="translate(-64)">
    <g id="Group_5" data-name="Group 5" transform="translate(64)">
      <g id="Group_4" data-name="Group 4">
        <path id="Path_9" data-name="Path 9" class="cls-1" d="M214.178,280.641l-.326,2.6a.427.427,0,0,0,.128.356.547.547,0,0,0,.384.153h2.064a.547.547,0,0,0,.384-.153.427.427,0,0,0,.128-.356l-.325-2.6a1.758,1.758,0,0,0,.844-1.474,2.078,2.078,0,0,0-4.128,0A1.758,1.758,0,0,0,214.178,280.641Zm1.219-2.391a.981.981,0,0,1,1.032.917.908.908,0,0,1-.587.822.451.451,0,0,0-.288.463l.3,2.382h-.911l.3-2.382a.451.451,0,0,0-.288-.463.908.908,0,0,1-.587-.822A.981.981,0,0,1,215.4,278.25Z" transform="translate(-206.109 -265.416)"/>
        <path id="Path_10" data-name="Path 10" class="cls-1" d="M82.059,8.25H80.511V6.417C80.511,2.878,77.271,0,73.287,0s-7.224,2.878-7.224,6.417V8.25H64.516A.489.489,0,0,0,64,8.708V20.167A1.961,1.961,0,0,0,66.064,22H80.511a1.961,1.961,0,0,0,2.064-1.833V8.708A.489.489,0,0,0,82.059,8.25ZM67.1,6.417c0-3.033,2.777-5.5,6.192-5.5s6.192,2.467,6.192,5.5V8.25H78.447V6.417a5.2,5.2,0,0,0-10.319,0V8.25H67.1Zm10.319,0V8.25H69.16V6.417a4.157,4.157,0,0,1,8.256,0Zm4.128,13.75a.981.981,0,0,1-1.032.917H66.064a.981.981,0,0,1-1.032-.917v-11H81.543Z" transform="translate(-64)"/>
      </g>
    </g>
  </g>
</svg>
