<svg xmlns="http://www.w3.org/2000/svg" viewBox="0 0 22 22">
  <defs>
    <style>
      .cls-1 {
        fill: #bbb;
      }
    </style>
  </defs>
  <path id="Path_8" data-name="Path 8" class="cls-1" d="M22,11A11,11,0,1,0,3.571,19.1l-.009.009.357.3c.021.021.047.034.073.056.189.159.387.305.584.451.064.047.129.095.2.137.215.146.434.288.657.421.047.03.1.056.146.086.245.137.494.271.752.391l.056.026a10.911,10.911,0,0,0,2.66.842l.073.013c.288.052.584.09.881.116.034,0,.073,0,.107.009.3.026.593.039.9.039s.6-.017.889-.039c.039,0,.073,0,.112-.009.292-.026.584-.064.872-.116l.073-.013A10.823,10.823,0,0,0,15.572,21a.859.859,0,0,0,.09-.043c.245-.116.49-.241.726-.374l.176-.1c.215-.129.425-.258.632-.4l.219-.155c.176-.125.348-.258.516-.4.039-.03.077-.056.112-.086l.365-.305-.013-.009A10.978,10.978,0,0,0,22,11ZM.8,11a10.2,10.2,0,1,1,16.964,7.627,2.805,2.805,0,0,0-.357-.215l-3.386-1.693a.883.883,0,0,1-.494-.8V14.738c.077-.1.163-.206.245-.327a8.166,8.166,0,0,0,1.048-2.05,1.453,1.453,0,0,0,.834-1.315V9.629a1.463,1.463,0,0,0-.357-.95V6.815a3.228,3.228,0,0,0-.752-2.346A4.5,4.5,0,0,0,11,3.2,4.494,4.494,0,0,0,7.455,4.469,3.228,3.228,0,0,0,6.7,6.815V8.68a1.463,1.463,0,0,0-.357.95v1.418a1.463,1.463,0,0,0,.537,1.13,7.545,7.545,0,0,0,1.238,2.557V15.89a.885.885,0,0,1-.464.782L4.495,18.4c-.1.056-.2.12-.3.189A10.179,10.179,0,0,1,.8,11Zm16.186,8.254c-.142.1-.284.2-.425.292-.064.043-.133.086-.2.129-.189.116-.382.228-.576.331-.043.021-.086.043-.129.069a9.707,9.707,0,0,1-1.4.589c-.017,0-.034.013-.052.017-.249.082-.5.159-.761.219h0c-.258.064-.52.116-.786.159-.009,0-.013,0-.021,0-.249.039-.5.069-.752.09-.043,0-.09.009-.133.009-.249.017-.5.03-.748.03s-.507-.013-.756-.03c-.043,0-.086,0-.129-.009-.254-.021-.507-.052-.756-.095-.013,0-.021,0-.034,0a10.687,10.687,0,0,1-1.555-.387c-.017,0-.03-.013-.047-.017-.254-.086-.5-.18-.743-.284a0,0,0,0,1,0,0c-.232-.1-.46-.211-.683-.327-.03-.017-.06-.03-.086-.047-.206-.107-.4-.228-.6-.352-.06-.039-.116-.073-.172-.112-.18-.12-.361-.241-.537-.374-.017-.013-.034-.03-.052-.043.013-.009.026-.013.039-.021l3.162-1.727a1.689,1.689,0,0,0,.881-1.487V14.433l-.09-.112a6.667,6.667,0,0,1-1.2-2.488L7.6,11.675l-.137-.09a.661.661,0,0,1-.309-.559V9.608a.648.648,0,0,1,.223-.49L7.511,9V6.789l0-.052a2.412,2.412,0,0,1,.559-1.745A3.774,3.774,0,0,1,11.009,4a3.769,3.769,0,0,1,2.939.988,2.45,2.45,0,0,1,.567,1.753l0,2.282.133.12a.663.663,0,0,1,.223.49v1.418a.671.671,0,0,1-.473.632l-.2.06-.064.2a7.389,7.389,0,0,1-1,2.011,4.03,4.03,0,0,1-.3.378l-.1.112V15.92a1.677,1.677,0,0,0,.937,1.513l3.386,1.693c.021.013.043.021.064.034A.9.9,0,0,0,16.986,19.254Z"/>
</svg>
