<svg xmlns="http://www.w3.org/2000/svg" viewBox="0 0 26.122 19.425">
  <defs>
    <style>
      .cls-1 {
        fill: #878787;
      }
    </style>
  </defs>
  <g id="logout" transform="translate(0 -42.299)">
    <path id="XMLID_4_" class="cls-1" d="M4.054,110.937H17.81a1.187,1.187,0,0,0,0-2.375H4.054l1.535-1.535a1.187,1.187,0,0,0-1.679-1.679L.348,108.91c-.028.027-.054.056-.078.086l-.017.023c-.018.023-.036.046-.052.071l-.013.022c-.016.025-.032.051-.047.078l-.008.016c-.015.029-.029.059-.042.089l0,.011c-.013.032-.025.064-.035.1,0,0,0,.009,0,.013-.01.033-.018.066-.025.1,0,.01,0,.02,0,.031,0,.028-.01.056-.013.085a1.171,1.171,0,0,0,0,.237c0,.029.008.057.013.085,0,.01,0,.02,0,.03.007.034.016.067.025.1l0,.012c.01.033.022.066.035.1l0,.011c.013.031.027.06.042.089l.008.016c.015.027.031.053.047.079l.013.021c.016.024.034.048.052.071l.017.023c.025.03.051.059.078.086l3.562,3.562a1.187,1.187,0,0,0,1.679-1.679Z" transform="translate(0 -57.738)"/>
    <path id="XMLID_5_" class="cls-1" d="M111.113,42.3a9.706,9.706,0,0,0-8.066,4.3,1.187,1.187,0,0,0,1.971,1.325,7.338,7.338,0,1,1,.01,8.189,1.187,1.187,0,0,0-1.968,1.329A9.713,9.713,0,1,0,111.113,42.3Z" transform="translate(-94.704)"/>
  </g>
</svg>
