<svg xmlns="http://www.w3.org/2000/svg" viewBox="0 0 31 31"><defs><style>.cls-1{fill:none;stroke:#fcfcfc;stroke-miterlimit:10;}.cls-2{fill:#fdfdff;fill-rule:evenodd;}</style></defs><title>love_selected</title><g id="Layer_2" data-name="Layer 2"><g id="REACT_gray" data-name="REACT gray"><path class="cls-1" d="M30.5,15.5a15,15,0,1,1-15-15A15,15,0,0,1,30.5,15.5Z"/><path class="cls-2" d="M15.5,10.84l.05-.07a4.53,4.53,0,0,1,1.19-1.31,4,4,0,0,1,4.7-.08,3.72,3.72,0,0,1,1.43,2.12A4.58,4.58,0,0,1,23,12.88c0,.25,0,.5,0,.76a5.53,5.53,0,0,1-.88,2.47,8.09,8.09,0,0,1-1.13,1.35c-.51.51-1,1-1.59,1.47-1,.84-1.94,1.66-2.88,2.53l-.92.86,0,0,0,0c-1-1-2.1-1.92-3.17-2.86-.67-.57-1.34-1.15-2-1.75a10.76,10.76,0,0,1-1.19-1.34,5.55,5.55,0,0,1-1-2.25A7.68,7.68,0,0,1,8,12.34,3.83,3.83,0,0,1,8.91,10,3.78,3.78,0,0,1,10.76,8.8a4.19,4.19,0,0,1,1.32-.15,4,4,0,0,1,2.28.88,5,5,0,0,1,1.11,1.27l0,0Z"/></g></g></svg>