<svg xmlns="http://www.w3.org/2000/svg" viewBox="0 0 20 18.27"><defs><style>.cls-1{fill:#bbb;fill-rule:evenodd;}</style></defs><title>Asset 11</title><g id="Layer_2" data-name="Layer 2"><g id="Layer_1-2" data-name="Layer 1"><path class="cls-1" d="M10,2.93l.07-.11a6.3,6.3,0,0,1,1.59-1.74,5.06,5.06,0,0,1,2.44-1A5.14,5.14,0,0,1,17.91,1,4.93,4.93,0,0,1,19.83,3.8,6,6,0,0,1,20,5.64c0,.34,0,.67-.07,1A7.57,7.57,0,0,1,18.75,10a11.26,11.26,0,0,1-1.51,1.8c-.67.68-1.39,1.32-2.12,1.95-1.29,1.12-2.58,2.23-3.84,3.38l-1.23,1.15-.05,0,0,0c-1.38-1.31-2.81-2.56-4.24-3.81-.89-.76-1.79-1.53-2.63-2.34a14.14,14.14,0,0,1-1.6-1.78,7.35,7.35,0,0,1-1.31-3A10.61,10.61,0,0,1,0,4.93,5.08,5.08,0,0,1,1.22,1.78,4.92,4.92,0,0,1,3.68.21a5.3,5.3,0,0,1,4.8,1A6.48,6.48,0,0,1,10,2.87l0,0Z"/></g></g></svg>