<svg xmlns="http://www.w3.org/2000/svg" viewBox="0 0 18.3 28.64"><defs><style>.cls-1{fill:#404185;}</style></defs><title>Asset 16</title><g id="Layer_2" data-name="Layer 2"><g id="REACT_gray" data-name="REACT gray"><path class="cls-1" d="M8.06,0h2.17a2.06,2.06,0,0,0,.35.12,9,9,0,0,1,7.71,9c0,3.5,0,7,0,10.5a8.45,8.45,0,0,1-4.52,7.78,20.7,20.7,0,0,1-3.54,1.29H8.06a2,2,0,0,0-.34-.12A9,9,0,0,1,0,19.57V9A8.89,8.89,0,0,1,6.24.48C6.84.29,7.46.16,8.06,0Zm2.42,9c0-.76,0-1.52,0-2.28a1.34,1.34,0,1,0-2.67,0c0,1.46,0,2.92,0,4.38a1.35,1.35,0,0,0,1.34,1.4,1.38,1.38,0,0,0,1.32-1.42C10.49,10.43,10.48,9.73,10.48,9Z"/></g></g></svg>