<svg xmlns="http://www.w3.org/2000/svg" viewBox="0 0 35.5 55.56"><defs><style>.cls-1{fill:#bbb;}</style></defs><title>Asset 4</title><g id="Layer_2" data-name="Layer 2"><g id="Layer_1-2" data-name="Layer 1"><path class="cls-1" d="M15.65,0h4.19a4.54,4.54,0,0,0,.68.23,17.42,17.42,0,0,1,15,17.37q0,10.18,0,20.36a16.45,16.45,0,0,1-8.77,15.11c-2.08,1.19-4.57,1.68-6.88,2.49H15.65a4.54,4.54,0,0,0-.68-.23A17.42,17.42,0,0,1,0,38V17.47A17.23,17.23,0,0,1,12.11.94C13.27.57,14.47.31,15.65,0Zm4.69,17.53c0-1.48,0-3,0-4.44a2.59,2.59,0,1,0-5.17.05c0,2.83,0,5.67,0,8.5a2.59,2.59,0,1,0,5.17-.05C20.36,20.24,20.34,18.88,20.34,17.53Z"/></g></g></svg>