<svg xmlns="http://www.w3.org/2000/svg" viewBox="0 0 26.42 36"><defs><style>.cls-1,.cls-2{fill:#fcfcfc;}.cls-1{fill-rule:evenodd;}</style></defs><title>Asset 12</title><g id="Layer_2" data-name="Layer 2"><g id="REACT_gray" data-name="REACT gray"><path class="cls-1" d="M23.35,4.94l1.32,1.84L21,9.41,19.69,7.57l3.66-2.63"/><rect class="cls-2" x="21.85" y="13.3" width="4.56" height="2.13"/><path class="cls-1" d="M18.75,1.06l-2,3.76-2-1.08c.68-1.26,1.32-2.47,2-3.74l2,1.06"/><path class="cls-2" d="M8.06,7.36h2.17a2.06,2.06,0,0,0,.35.12,9,9,0,0,1,7.71,9c0,3.5,0,7,0,10.5a8.48,8.48,0,0,1-4.52,7.79A21.56,21.56,0,0,1,10.23,36H8.06a2,2,0,0,0-.34-.12,9,9,0,0,1-7.72-9V16.37A8.89,8.89,0,0,1,6.24,7.84C6.84,7.66,7.46,7.52,8.06,7.36Zm2.42,9c0-.76,0-1.53,0-2.29a1.34,1.34,0,1,0-2.67,0c0,1.47,0,2.93,0,4.39a1.35,1.35,0,0,0,1.34,1.39,1.38,1.38,0,0,0,1.32-1.42C10.49,17.79,10.48,17.1,10.48,16.4Z"/></g></g></svg>