<svg id="move-arrows" xmlns="http://www.w3.org/2000/svg" viewBox="0 0 58 58">
  <defs>
    <style>
      .cls-1 {
        fill: #bbb;
      }
    </style>
  </defs>
  <g id="Group_91" data-name="Group 91">
    <path id="Path_98" data-name="Path 98" class="cls-1" d="M57.849,28.261l-.414-.626L49.7,19.9a1.933,1.933,0,1,0-2.734,2.734L51.4,27.067H30.933V6.6l4.431,4.431A1.933,1.933,0,0,0,38.1,8.3L30.365.565,30.346.553l-.607-.4L29,0h-.008l-.731.151-.607.4-.023.012L19.9,8.3a1.933,1.933,0,0,0,2.734,2.734L27.067,6.6V27.067H6.6l4.431-4.431A1.933,1.933,0,0,0,8.3,19.9L.565,27.635l-.012.019-.4.607L0,29v.008l.151.731.4.6.012.023L8.3,38.1a1.933,1.933,0,0,0,2.734-2.734L6.6,30.933H27.067V51.4l-4.431-4.431A1.933,1.933,0,1,0,19.9,49.7l7.733,7.733.626.418.731.147H29l.738-.151.626-.414L38.1,49.7a1.933,1.933,0,0,0-2.734-2.734L30.933,51.4V30.933H51.4l-4.431,4.431A1.933,1.933,0,0,0,49.7,38.1l7.733-7.733.418-.626L58,29.008V29Z"/>
  </g>
</svg>
