<svg id="note-interface-symbol" xmlns="http://www.w3.org/2000/svg" viewBox="0 0 25.999 25.999">
  <defs>
    <style>
      .cls-1 {
        fill: #878787;
      }
    </style>
  </defs>
  <g id="New_x5F_Post">
    <g id="Group_94" data-name="Group 94">
      <path id="Path_110" data-name="Path 110" class="cls-1" d="M23.155,12.187a1.219,1.219,0,0,0-1.219,1.219V23.562H2.437V4.062H12.593a1.219,1.219,0,0,0,0-2.437H1.625A1.625,1.625,0,0,0,0,3.25V24.374A1.625,1.625,0,0,0,1.625,26H22.749a1.625,1.625,0,0,0,1.625-1.625V13.406A1.219,1.219,0,0,0,23.155,12.187Zm2.56-8.408-3.5-3.5a.98.98,0,0,0-1.378,0L7.312,13.812v4.875h4.875L25.715,5.158a.981.981,0,0,0,0-1.38ZM11.375,16.249H9.75V14.624L21.53,2.844l1.625,1.625Z"/>
    </g>
  </g>
</svg>
