<svg xmlns="http://www.w3.org/2000/svg" viewBox="0 0 21.375 21.375">
  <defs>
    <style>
      .cls-1 {
        fill: #878787;
      }
    </style>
  </defs>
  <g id="Group_213" data-name="Group 213" transform="translate(-519 -207)">
    <g id="_24-hours" data-name="24-hours" transform="translate(519 207)">
      <g id="Group_195" data-name="Group 195">
        <g id="Group_194" data-name="Group 194">
          <path id="Path_191" data-name="Path 191" class="cls-1" d="M326.772,279.131H325.7v-6.769a.356.356,0,0,0-.648-.2l-4.988,7.125a.356.356,0,0,0,.292.56h4.631v1.069a.356.356,0,1,0,.712,0v-1.069h1.069a.356.356,0,1,0,0-.712Zm-1.781,0h-3.947l3.947-5.639Z" transform="translate(-305.753 -259.893)"/>
          <path id="Path_192" data-name="Path 192" class="cls-1" d="M213.344,280.537h-4.218l3.921-4.617a.387.387,0,0,0,.025-.033,2.478,2.478,0,0,0-.559-3.364A2.85,2.85,0,0,0,208,274.837a.356.356,0,1,0,.713,0A2.138,2.138,0,0,1,212.1,273.1a1.759,1.759,0,0,1,.392,2.374l-4.4,5.188a.356.356,0,0,0,.271.587h4.988a.356.356,0,1,0,0-.712Z" transform="translate(-198.737 -259.874)"/>
          <path id="Path_193" data-name="Path 193" class="cls-1" d="M9.627,18.888a.356.356,0,0,0-.343-.369h0A8.9,8.9,0,0,1,.725,9.975H2.138a.356.356,0,0,0,0-.713H.725A8.885,8.885,0,0,1,9.263.725V1.781a.356.356,0,0,0,.713,0V.725A8.891,8.891,0,0,1,18.508,9.1L17.119,7.708a.356.356,0,0,0-.5.5L18.6,10.2a.35.35,0,0,0,.14.1l.042.01a.352.352,0,0,0,.076.018h.02a.343.343,0,0,0,.08-.016.335.335,0,0,0,.043-.008.351.351,0,0,0,.129-.081L21.15,8.212a.356.356,0,0,0-.5-.5L19.222,9.131A9.6,9.6,0,0,0,9.644,0c-.009,0-.016,0-.025,0S9.6,0,9.594,0A9.6,9.6,0,0,0,0,9.594C0,9.6,0,9.61,0,9.619s0,.016,0,.025a9.61,9.61,0,0,0,9.253,9.587h.013A.356.356,0,0,0,9.627,18.888Z"/>
          <path id="Path_194" data-name="Path 194" class="cls-1" d="M159.188,106.282a.356.356,0,0,0-.5,0l-3.828,3.828a1.116,1.116,0,0,0-.909,0l-1.813-1.813a.356.356,0,0,0-.5.5l1.809,1.809a1.067,1.067,0,1,0,1.923,0l3.825-3.825A.356.356,0,0,0,159.188,106.282Zm-4.534,5.038h0a.364.364,0,0,1-.5,0,.356.356,0,1,1,.5,0Z" transform="translate(-144.783 -101.449)"/>
        </g>
      </g>
    </g>
  </g>
</svg>
