<svg xmlns="http://www.w3.org/2000/svg" viewBox="0 0 23.216 23.129">
  <defs>
    <style>
      .cls-1 {
        fill: #878787;
      }
    </style>
  </defs>
  <g id="Group_214" data-name="Group 214" transform="translate(0 0)">
    <g id="Group_197" data-name="Group 197" transform="translate(0)">
      <path id="Path_195" data-name="Path 195" class="cls-1" d="M22.2,8.387l-.717-.1-.884-.076-.243-.6.577-.677.421-.575a1.152,1.152,0,0,0,.231-.715.313.313,0,0,0-.011-.1,1.087,1.087,0,0,0-.345-.752l-2.8-2.794a1.059,1.059,0,0,0-.755-.355h-.114a1.182,1.182,0,0,0-.706.216l-.577.42-.679.575-.615-.231L14.9,1.724l-.106-.7A1.252,1.252,0,0,0,13.591,0H9.63A1.269,1.269,0,0,0,8.412,1.021l-.1.7-.076.892-.6.231-.679-.575-.577-.42a1.135,1.135,0,0,0-.679-.216H5.581a1.094,1.094,0,0,0-.782.355L2,4.787a1.173,1.173,0,0,0-.334.752.646.646,0,0,0-.011.14,1.114,1.114,0,0,0,.2.677l.421.575.607.677a4.759,4.759,0,0,0-.258.6l-.9.076-.706.1A1.275,1.275,0,0,0,0,9.6v3.944a1.259,1.259,0,0,0,1.024,1.2l.706.1.9.076c.1.268.194.473.258.613l-.6.677-.421.575a1.07,1.07,0,0,0-.2.65.629.629,0,0,0,.011.14A1.211,1.211,0,0,0,2,18.354l2.8,2.794a1.091,1.091,0,0,0,.782.344H5.7a1.135,1.135,0,0,0,.679-.216l.577-.42.679-.6c.231.113.436.2.6.268l.076.881.1.715a1.267,1.267,0,0,0,1.218,1.01h3.957a1.247,1.247,0,0,0,1.2-1.01l.1-.715.076-.881a6.187,6.187,0,0,0,.615-.268l.679.6.577.42a1.134,1.134,0,0,0,.691.2h.129a1.062,1.062,0,0,0,.755-.333l2.8-2.794a1.122,1.122,0,0,0,.345-.779.313.313,0,0,0,.011-.1,1.107,1.107,0,0,0-.231-.688l-.421-.575-.577-.677.243-.613.884-.076.717-.1a1.247,1.247,0,0,0,1.024-1.2V9.6A1.255,1.255,0,0,0,22.2,8.387Zm-.243,5.131-.653.1-.319.026-1.332.1a4.045,4.045,0,0,1-.231.741c-.011.038-.072.2-.216.522-.034.079-.14.306-.334.677l.831,1.021.2.231.4.548-2.755,2.741-.524-.4-.254-.2-1.024-.87a5.1,5.1,0,0,1-.679.371c-.114.053-.463.178-.524.216l-.744.231-.1,1.3-.027.344-.1.65H9.656l-.1-.65-.038-.344-.1-1.3-.728-.231-.527-.212a4.2,4.2,0,0,1-.679-.371l-1.024.87-.243.2-.55.393L2.906,17.484l.4-.548.2-.231.873-1.021a3.9,3.9,0,0,1-.372-.677l-.2-.522-.231-.741-1.32-.1-.334-.026-.664-.1V9.619l.664-.113.334-.026,1.32-.1.231-.726.2-.522a3.9,3.9,0,0,1,.372-.677L3.51,6.432l-.2-.268-.4-.522L5.661,2.9l.55.4.243.2,1.024.843.281-.151c.167-.091.307-.151.4-.193a5.189,5.189,0,0,1,.524-.2,4.667,4.667,0,0,1,.728-.231l.1-1.339.038-.306.1-.662H13.56l.1.662.027.306.1,1.339a4.079,4.079,0,0,1,.744.231,3.662,3.662,0,0,1,.524.2l.383.193.3.151L16.762,3.5l.254-.2.524-.4,2.755,2.745-.391.522-.2.268-.831,1.021c.194.371.3.6.334.677a4.079,4.079,0,0,1,.216.522,4.157,4.157,0,0,1,.231.726l1.332.1.319.026.653.113v3.9Z" transform="translate(0)"/>
      <path id="Path_196" data-name="Path 196" class="cls-1" d="M205.844,201.2a3.944,3.944,0,1,0,0,7.888,3.837,3.837,0,0,0,2.794-1.149,3.949,3.949,0,0,0-2.794-6.738Zm1.887,5.872a2.6,2.6,0,0,1-1.891.79,2.708,2.708,0,1,1,1.891-4.609,2.6,2.6,0,0,1,.805,1.891A2.625,2.625,0,0,1,207.731,207.072Z" transform="translate(-194.226 -193.592)"/>
    </g>
  </g>
</svg>
