<svg xmlns="http://www.w3.org/2000/svg" xmlns:xlink="http://www.w3.org/1999/xlink" viewBox="0 0 33.39 25.75"><defs><style>.cls-1{fill:#fcfafb;stroke-miterlimit:10;stroke-width:0.75px;stroke:url(#linear-gradient);}</style><linearGradient id="linear-gradient" y1="12.88" x2="33.39" y2="12.88" gradientUnits="userSpaceOnUse"><stop offset="0" stop-color="#3e52a7"/><stop offset="1" stop-color="#3e52a7"/></linearGradient></defs><title>Asset 47</title><g id="Layer_2" data-name="Layer 2"><g id="REACT_gray" data-name="REACT gray"><path class="cls-1" d="M6.15,21.35H.38c0-7.53,7.62-8.52,7.68-8.53h0a6.48,6.48,0,0,1-3.94-6A6.37,6.37,0,0,1,10.41.38a6.2,6.2,0,0,1,5.17,2.79,7.73,7.73,0,0,0-6.47,7.69,7.83,7.83,0,0,0,2.2,5.49A9.74,9.74,0,0,0,6.15,21.35Zm19.18-8.53h0a6.47,6.47,0,0,0,3.94-6A6.38,6.38,0,0,0,23,.38a6.22,6.22,0,0,0-5.17,2.79,7.73,7.73,0,0,1,6.47,7.69,7.83,7.83,0,0,1-2.2,5.49,9.74,9.74,0,0,1,5.16,5H33c0-7.54-7.64-8.53-7.69-8.53m-6.29,4,.17-.08A6.45,6.45,0,0,0,23,10.86a6.38,6.38,0,0,0-5.83-6.43l-.45,0-.46,0a6.38,6.38,0,0,0-5.83,6.43,6.45,6.45,0,0,0,3.77,5.91l.17.08h0l-.24,0c-1,.18-4.76,1.08-6.53,4.46a8.54,8.54,0,0,0-.92,4H26.73a8.54,8.54,0,0,0-.92-4c-1.76-3.38-5.54-4.28-6.53-4.46l-.24,0h0"/></g></g></svg>