<svg xmlns="http://www.w3.org/2000/svg" viewBox="0 0 30.63 28.64"><defs><style>.cls-1{fill:#404185;}</style></defs><title>Asset 13</title><g id="Layer_2" data-name="Layer 2"><g id="REACT_gray" data-name="REACT gray"><path class="cls-1" d="M30.4,14.22a5.09,5.09,0,0,0-4-4.09A9.45,9.45,0,0,0,24.79,10c-.85,0-1.71,0-2.56,0h-.3c.17-.48.36-.91.5-1.36a10.7,10.7,0,0,0,.37-5.5A3.69,3.69,0,0,0,21,.47,3.75,3.75,0,0,0,18.33.09a1.26,1.26,0,0,0-.86.85c-.38.91-.74,1.81-1.08,2.73A28,28,0,0,1,14,8.92a7.81,7.81,0,0,1-2,2.13c-.54.38-1.12.7-1.69,1-.09.06-.18.16-.29,0s-.17,0-.26,0H0V26.94H10v-.79l.12,0h2.3a1,1,0,0,1,.44.13l2.47,1.48a3.43,3.43,0,0,0,1.32.56c1,.1,1.92.25,2.89.3a30.3,30.3,0,0,0,5.71-.17,4.7,4.7,0,0,0,3.06-1.62,5.42,5.42,0,0,0,1.05-2.22,43,43,0,0,0,1.09-5.47c.07-.54.13-1.1.18-1.65V15.59C30.56,15.13,30.51,14.67,30.4,14.22Zm-2,5.56c-.27,1.53-.63,3-1,4.58a2.6,2.6,0,0,1-2.14,2.05,11.71,11.71,0,0,1-1.77.21,32,32,0,0,1-6.26-.21,1.63,1.63,0,0,1-.53-.16c-.93-.54-1.87-1.08-2.79-1.65a2.78,2.78,0,0,0-1.48-.44c-.7,0-1.41,0-2.12,0-.24,0-.3-.06-.3-.3,0-1.89,0-3.78,0-5.67v-3.6a.27.27,0,0,1,.15-.29c.82-.42,1.64-.84,2.43-1.31A9.87,9.87,0,0,0,15,10.83a15.82,15.82,0,0,0,2.19-3.91c.66-1.57,1.25-3.17,1.87-4.75A.24.24,0,0,1,19.37,2a1.42,1.42,0,0,1,1.32,1A6,6,0,0,1,21,4.44a10.22,10.22,0,0,1-1.79,6.42c-.23.34-.44.68-.7,1.06h4.07c.92,0,1.85,0,2.77,0a3.05,3.05,0,0,1,1.92.67,3.88,3.88,0,0,1,1.36,2.72A16.15,16.15,0,0,1,28.36,19.78Z"/></g></g></svg>