<svg xmlns="http://www.w3.org/2000/svg" viewBox="0 0 20.145 23.13">
  <defs>
    <style>
      .cls-1 {
        fill: #878787;
      }
    </style>
  </defs>
  <g id="tap" transform="translate(-0.079 -0.001)">
    <path id="Path_184" data-name="Path 184" class="cls-1" d="M.173,10.647A1.072,1.072,0,0,0,.6,11.99a21.44,21.44,0,0,1,3.66,5.266,11.3,11.3,0,0,0,3.034,3.358,1.76,1.76,0,0,1,.7,1.368v.141A1.3,1.3,0,0,0,9.4,23.28H16.93a1.3,1.3,0,0,0,1.412-1.156V20.939a.322.322,0,0,1,.126-.262,4.757,4.757,0,0,0,1.757-3.564v-6.1a1.736,1.736,0,0,0-1.745-1.6,2.221,2.221,0,0,0-1.078.21v-.6a1.51,1.51,0,0,0-.949-1.343,2.232,2.232,0,0,0-1.894.024,1.558,1.558,0,0,0-1.01-1.214,2.224,2.224,0,0,0-1.793.049V5.9a3,3,0,0,0,1.882-2.659c0-1.7-1.685-3.083-3.764-3.083S6.108,1.536,6.108,3.239A3,3,0,0,0,7.99,5.9v6.2a3.55,3.55,0,0,1-.224,1.344.45.45,0,0,1-.339.259A.526.526,0,0,1,7,13.615a5.908,5.908,0,0,1-.973-.955c-.817-1-2.871-2.869-4.157-2.869a1.92,1.92,0,0,0-1.7.856ZM7.049,3.239A2.606,2.606,0,0,1,9.872.927a2.606,2.606,0,0,1,2.823,2.312,2.132,2.132,0,0,1-.941,1.726V3.239A1.738,1.738,0,0,0,9.872,1.7,1.737,1.737,0,0,0,7.99,3.239V4.965A2.133,2.133,0,0,1,7.049,3.239Zm-1.8,9.849a6.758,6.758,0,0,0,1.112,1.089,1.615,1.615,0,0,0,1.3.277,1.344,1.344,0,0,0,1-.76A4.182,4.182,0,0,0,8.931,12.1V3.239a.869.869,0,0,1,.941-.771.869.869,0,0,1,.941.771v8.093a.48.48,0,0,0,.941,0V7.864a.869.869,0,0,1,.941-.771.869.869,0,0,1,.941.771v3.468a.48.48,0,0,0,.941,0V9.02a.96.96,0,0,1,1.882,0v2.7a.48.48,0,0,0,.941,0v-.771a.7.7,0,0,1,.276-.545,1.079,1.079,0,0,1,.734-.224.891.891,0,0,1,.872.834v6.1a4.107,4.107,0,0,1-1.451,3,1.038,1.038,0,0,0-.431.831v1.184a.434.434,0,0,1-.471.385H9.4a.434.434,0,0,1-.471-.385v-.141a2.476,2.476,0,0,0-.983-1.921A10.839,10.839,0,0,1,5.133,16.97a21.944,21.944,0,0,0-3.869-5.525c-.224-.183-.3-.353-.223-.5a.986.986,0,0,1,.831-.38c.639,0,2.373,1.3,3.373,2.526Zm0,0" transform="translate(0 -0.15)"/>
    <path id="Path_185" data-name="Path 185" class="cls-1" d="M314.538,301.445a.328.328,0,0,0,.328-.328v-1.965a.328.328,0,0,0-.655,0v1.965A.327.327,0,0,0,314.538,301.445Zm0,0" transform="translate(-295.952 -285.017)"/>
    <path id="Path_186" data-name="Path 186" class="cls-1" d="M306.006,385.581a.327.327,0,0,0,.231-.1,1.33,1.33,0,0,0,.424-.887.323.323,0,0,0-.32-.323.329.329,0,0,0-.335.315.721.721,0,0,1-.232.431.328.328,0,0,0,.232.559Zm0,0" transform="translate(-287.748 -366.735)"/>
    <path id="Path_187" data-name="Path 187" class="cls-1" d="M178,461.612h.327a.328.328,0,1,0,0-.655H178a.328.328,0,1,0,0,.655Zm0,0" transform="translate(-167.58 -439.792)"/>
    <path id="Path_188" data-name="Path 188" class="cls-1" d="M220.671,461.612h2.293a.328.328,0,1,0,0-.655h-2.293a.328.328,0,0,0,0,.655Zm0,0" transform="translate(-207.137 -439.792)"/>
    <path id="Path_189" data-name="Path 189" class="cls-1" d="M76.588,5.424a.328.328,0,0,0,.239-.552A3.267,3.267,0,0,1,76.683.543a.328.328,0,1,0-.5-.417,3.923,3.923,0,0,0,.171,5.195.328.328,0,0,0,.239.1Zm0,0" transform="translate(-70.886 0)"/>
    <path id="Path_190" data-name="Path 190" class="cls-1" d="M241.984,4.556a.327.327,0,0,0,.441-.142,3.917,3.917,0,0,0-.468-4.288.327.327,0,1,0-.5.417,3.262,3.262,0,0,1,.39,3.572.327.327,0,0,0,.142.441Zm0,0" transform="translate(-227.509)"/>
  </g>
</svg>
