<svg xmlns="http://www.w3.org/2000/svg" xmlns:xlink="http://www.w3.org/1999/xlink" viewBox="0 0 30.364 29.939">
  <defs>
    <style>
      .cls-1, .cls-3, .cls-5 {
        fill: #bbb;
      }

      .cls-2 {
        clip-path: url(#clip-path);
      }

      .cls-3, .cls-5 {
        stroke: #fff;
      }

      .cls-4 {
        clip-path: url(#clip-path-2);
      }

      .cls-5 {
        stroke-width: 0.75px;
      }

      .cls-6 {
        clip-path: url(#clip-path-3);
      }

      .cls-7 {
        clip-path: url(#clip-path-5);
      }

      .cls-8 {
        clip-path: url(#clip-path-7);
      }

      .cls-9 {
        clip-path: url(#clip-path-9);
      }

      .cls-10 {
        clip-path: url(#clip-path-11);
      }

      .cls-11 {
        clip-path: url(#clip-path-13);
      }
    </style>
    <clipPath id="clip-path">
      <path id="Path_71" data-name="Path 71" class="cls-1" d="M2.278-40.846a1.739,1.739,0,0,0-1.9,1.5h0v26.237a1.745,1.745,0,0,0,1.9,1.489H28.149v.022a1.746,1.746,0,0,0,1.9-1.511h0V-39.351a1.75,1.75,0,0,0-1.9-1.5H2.278Z" transform="translate(-0.375 40.846)"/>
    </clipPath>
    <clipPath id="clip-path-2">
      <path id="Path_73" data-name="Path 73" class="cls-1" d="M0-41.222H30.364v29.939H0Z" transform="translate(0 41.222)"/>
    </clipPath>
    <clipPath id="clip-path-3">
      <path id="Path_75" data-name="Path 75" class="cls-1" d="M2.615-13.493H28.239V-38.607H2.615Z" transform="translate(-2.615 38.607)"/>
    </clipPath>
    <clipPath id="clip-path-5">
      <path id="Path_79" data-name="Path 79" class="cls-1" d="M23.234-8.856H8.4a.915.915,0,0,0-.915.915h0a.85.85,0,0,0,0,.236h0a.807.807,0,0,0,.915.679H23.234a.949.949,0,0,0,.145,0h0a.85.85,0,0,0,.8-.9h0a.911.911,0,0,0-.275-.667h0a.909.909,0,0,0-.643-.265h-.025" transform="translate(-7.475 8.856)"/>
    </clipPath>
    <clipPath id="clip-path-7">
      <path id="Path_83" data-name="Path 83" class="cls-1" d="M23.234-14.927H8.4a.769.769,0,0,0-.215,0h0a.815.815,0,0,0-.7.914h0A.916.916,0,0,0,8.4-13.1H23.234a.959.959,0,0,0,.668-.265h0a.961.961,0,0,0,.247-.65h0a.82.82,0,0,0,0-.259h0a.8.8,0,0,0-.784-.666h0a.8.8,0,0,0-.131.011" transform="translate(-7.477 14.938)"/>
    </clipPath>
    <clipPath id="clip-path-9">
      <path id="Path_87" data-name="Path 87" class="cls-1" d="M7.749-20.772a.926.926,0,0,0-.265.668h0a.857.857,0,0,0,0,.237h0a.806.806,0,0,0,.915.678H23.234l-.027-.018a.81.81,0,0,0,.2.005h0a.843.843,0,0,0,.756-.921h0a.916.916,0,0,0-.915-.916H8.4a.92.92,0,0,0-.648.266" transform="translate(-7.475 21.038)"/>
    </clipPath>
    <clipPath id="clip-path-11">
      <path id="Path_91" data-name="Path 91" class="cls-1" d="M8.144-27.067a.714.714,0,0,0-.65.668h0a.276.276,0,0,0,0,.128h0v.175a.272.272,0,0,0,0,.127h0a.7.7,0,0,0,.65.659h0a.6.6,0,0,0,.255,0H23.244a.6.6,0,0,0,.256,0h0a.712.712,0,0,0,.65-.659h0v-.192h-.009V-26.4a.733.733,0,0,0-.65-.668H8.144Z" transform="translate(-7.487 27.067)"/>
    </clipPath>
    <clipPath id="clip-path-13">
      <path id="Path_95" data-name="Path 95" class="cls-1" d="M23.234-33.178H8.4a.758.758,0,0,0-.193,0h0a.825.825,0,0,0-.722.915h0a.916.916,0,0,0,.915.915h14.79a.914.914,0,0,0,.669-.265h0l.045-.009a.966.966,0,0,0,.247-.641h0a.819.819,0,0,0,0-.259h0a.8.8,0,0,0-.784-.666h0a.8.8,0,0,0-.131.01" transform="translate(-7.478 33.188)"/>
    </clipPath>
  </defs>
  <g id="Group_87" data-name="Group 87" transform="translate(0 41.222)">
    <g id="Group_61" data-name="Group 61" class="cls-2" transform="translate(0.343 -40.878)">
      <g id="Group_60" data-name="Group 60" transform="translate(-0.343 -0.272)">
        <path id="Path_70" data-name="Path 70" class="cls-3" d="M-.375-20.61H29.989V9.184H-.375Z" transform="translate(0.375 20.61)"/>
      </g>
    </g>
    <g id="Group_63" data-name="Group 63" class="cls-4" transform="translate(0 -41.222)">
      <g id="Group_62" data-name="Group 62" transform="translate(0.343 0.273)">
        <path id="Path_72" data-name="Path 72" class="cls-5" d="M-2.576-11.069H-28.447a1.746,1.746,0,0,1-1.9-1.5V-38.928a1.741,1.741,0,0,1,1.9-1.511H-2.576a1.751,1.751,0,0,1,1.9,1.5v26.371a1.747,1.747,0,0,1-1.9,1.518Z" transform="translate(30.35 40.439)"/>
      </g>
    </g>
    <g id="Group_65" data-name="Group 65" class="cls-6" transform="translate(2.393 -38.829)">
      <g id="Group_64" data-name="Group 64" transform="translate(-2.393 -1.827)">
        <path id="Path_74" data-name="Path 74" class="cls-3" d="M-2.615-20.59H27.749v28.8H-2.615Z" transform="translate(2.615 20.59)"/>
      </g>
    </g>
    <g id="Group_66" data-name="Group 66" class="cls-4" transform="translate(0 -41.222)">
      <path id="Path_76" data-name="Path 76" class="cls-5" d="M2.615-12.5H28.239V-38.606H2.615Z" transform="translate(-0.222 40.506)"/>
    </g>
    <g id="Group_68" data-name="Group 68" class="cls-7" transform="translate(6.841 -18.028)">
      <g id="Group_67" data-name="Group 67" transform="translate(-6.841 -29.619)">
        <path id="Path_78" data-name="Path 78" class="cls-3" d="M-7.475-33.37H22.889V4.354H-7.475Z" transform="translate(7.475 33.37)"/>
      </g>
    </g>
    <g id="Group_70" data-name="Group 70" class="cls-4" transform="translate(0 -41.222)">
      <g id="Group_69" data-name="Group 69" transform="translate(6.84 23.507)">
        <path id="Path_80" data-name="Path 80" class="cls-5" d="M-1.461-.548H-16.3a.8.8,0,0,1-.915-.538.5.5,0,0,1,0-.188A.837.837,0,0,1-16.3-2H-1.461a1.051,1.051,0,0,1,.667.211.653.653,0,0,1,.275.53.752.752,0,0,1-.8.715A1.052,1.052,0,0,1-1.461-.548Z" transform="translate(17.221 2)"/>
      </g>
    </g>
    <g id="Group_72" data-name="Group 72" class="cls-8" transform="translate(6.842 -22.387)">
      <g id="Group_71" data-name="Group 71" transform="translate(-6.842 -24.053)">
        <path id="Path_82" data-name="Path 82" class="cls-3" d="M-7.477-27.289H22.887V10.434H-7.477Z" transform="translate(7.477 27.289)"/>
      </g>
    </g>
    <g id="Group_74" data-name="Group 74" class="cls-4" transform="translate(0 -41.222)">
      <g id="Group_73" data-name="Group 73" transform="translate(6.842 19.089)">
        <path id="Path_84" data-name="Path 84" class="cls-5" d="M-1.523-.471a1.109,1.109,0,0,1-.667.211H-17.026a.838.838,0,0,1-.915-.726c-.059-.354.253-.679.7-.726a.976.976,0,0,1,.216,0H-2.19a.8.8,0,0,1,.915.521.554.554,0,0,1,0,.206A.686.686,0,0,1-1.523-.471Z" transform="translate(17.948 1.722)"/>
      </g>
    </g>
    <g id="Group_76" data-name="Group 76" class="cls-9" transform="translate(6.841 -26.76)">
      <g id="Group_75" data-name="Group 75" transform="translate(-6.841 -18.471)">
        <path id="Path_86" data-name="Path 86" class="cls-3" d="M-7.475-21.2H22.889V16.524H-7.475Z" transform="translate(7.475 21.2)"/>
      </g>
    </g>
    <g id="Group_78" data-name="Group 78" class="cls-4" transform="translate(0 -41.222)">
      <g id="Group_77" data-name="Group 77" transform="translate(6.84 14.66)">
        <path id="Path_88" data-name="Path 88" class="cls-5" d="M-1.461-.553H-16.3a.8.8,0,0,1-.915-.538.5.5,0,0,1,0-.188.66.66,0,0,1,.265-.53,1.057,1.057,0,0,1,.669-.211H-1.443a.838.838,0,0,1,.915.726c.045.368-.294.7-.757.731a1.009,1.009,0,0,1-.2,0Z" transform="translate(17.221 2.021)"/>
      </g>
    </g>
    <g id="Group_80" data-name="Group 80" class="cls-10" transform="translate(6.851 -31.073)">
      <g id="Group_79" data-name="Group 79" transform="translate(-6.851 -12.954)">
        <path id="Path_90" data-name="Path 90" class="cls-3" d="M-7.487-15.123H22.877V22.6H-7.487Z" transform="translate(7.487 15.123)"/>
      </g>
    </g>
    <g id="Group_82" data-name="Group 82" class="cls-4" transform="translate(0 -41.222)">
      <g id="Group_81" data-name="Group 81" transform="translate(6.852 10.281)">
        <path id="Path_92" data-name="Path 92" class="cls-5" d="M-1.545-.271v.153A.653.653,0,0,1-2.2.405a.793.793,0,0,1-.255,0H-17.3a.793.793,0,0,1-.255,0,.635.635,0,0,1-.65-.524.175.175,0,0,1,0-.1V-.358a.175.175,0,0,1,0-.1.647.647,0,0,1,.65-.529H-2.205a.665.665,0,0,1,.65.529v.189Z" transform="translate(18.208 0.989)"/>
      </g>
    </g>
    <g id="Group_84" data-name="Group 84" class="cls-11" transform="translate(6.843 -35.465)">
      <g id="Group_83" data-name="Group 83" transform="translate(-6.843 -7.352)">
        <path id="Path_94" data-name="Path 94" class="cls-3" d="M-7.479-9.039H22.886V28.684H-7.479Z" transform="translate(7.479 9.039)"/>
      </g>
    </g>
    <g id="Group_86" data-name="Group 86" class="cls-4" transform="translate(0 -41.222)">
      <g id="Group_85" data-name="Group 85" transform="translate(6.843 5.835)">
        <path id="Path_96" data-name="Path 96" class="cls-5" d="M-1.519-.471a1.052,1.052,0,0,1-.668.211h-14.79a.838.838,0,0,1-.915-.726c-.053-.358.269-.683.721-.726a.962.962,0,0,1,.194,0H-2.141a.8.8,0,0,1,.915.521.518.518,0,0,1,0,.206.687.687,0,0,1-.247.508Z" transform="translate(17.897 1.722)"/>
      </g>
    </g>
  </g>
</svg>
