<svg xmlns="http://www.w3.org/2000/svg" xmlns:xlink="http://www.w3.org/1999/xlink" viewBox="0 0 29.68 30.75"><defs><style>.cls-1{fill:#fcfafb;stroke-miterlimit:10;stroke-width:0.75px;stroke:url(#linear-gradient);}</style><linearGradient id="linear-gradient" y1="15.38" x2="29.68" y2="15.38" gradientUnits="userSpaceOnUse"><stop offset="0" stop-color="#3e52a7"/><stop offset="1" stop-color="#3e52a7"/></linearGradient></defs><title>Asset 46</title><g id="Layer_2" data-name="Layer 2"><g id="REACT_gray" data-name="REACT gray"><path class="cls-1" d="M13.83,30.38c-.75-.2-1.51-.35-2.24-.6A12.78,12.78,0,0,1,2.71,19.32c0-.1,0-.2,0-.31s0-.07-.09-.19H1.49c-.87,0-1.38-.71-1-1.45.93-1.71,1.92-3.39,2.92-5.05a1,1,0,0,1,1.66,0c1,1.65,2,3.31,2.89,5a1,1,0,0,1-.93,1.48h-1a8.2,8.2,0,0,0,1.2,3.51A9.57,9.57,0,1,0,20.15,9.13a9.36,9.36,0,0,0-9.67.2,4.4,4.4,0,0,1-.85.4,1.61,1.61,0,0,1-1.91-.86,1.63,1.63,0,0,1,.55-2.08,12.35,12.35,0,0,1,4.65-2l.95-.18V2.83c-.43,0-.85,0-1.26,0a.77.77,0,0,1-.85-.75,1.77,1.77,0,0,1,.42-1.7H19a1.51,1.51,0,0,1,.43,1.84c-.33,1.15-1.45.31-2.15.72V4.66l.34.09.37.07a12.43,12.43,0,0,1,6.79,3.72,12.42,12.42,0,0,1,3.53,10.15,12.53,12.53,0,0,1-7.79,10.65,26.16,26.16,0,0,1-3.43,1Zm9.53-12.84a7.59,7.59,0,0,0-7.9-7.93v7.93Zm5.3-11.27c-.73-.71-1.48-1.39-2.24-2.06A.9.9,0,0,0,25,4.29l-.35.37a1,1,0,0,0,.07,1.62c.66.6,1.32,1.19,2,1.8.35.34.77.7,1.22.39a11.07,11.07,0,0,0,1.32-1.33A4.75,4.75,0,0,0,28.66,6.27Z"/></g></g></svg>