<svg id="user_1_" data-name="user (1)" xmlns="http://www.w3.org/2000/svg" viewBox="0 0 165.088 165.443">
  <defs>
    <style>
      .cls-1 {
        fill: #e7eced;
      }

      .cls-2 {
        fill: #556080;
      }
    </style>
  </defs>
  <path id="Path_644" data-name="Path 644" class="cls-1" d="M37.714,113,13.348,126.5a21.9,21.9,0,0,0-3.911,2.826,80.655,80.655,0,0,0,104.86.275,21.6,21.6,0,0,0-4.3-2.923L83.908,113.433a10.123,10.123,0,0,1-5.5-9.038V94a39.946,39.946,0,0,0,2.468-3.224,61.359,61.359,0,0,0,8.111-16.6A8.307,8.307,0,0,0,94.8,66.257v-11.1a8.341,8.341,0,0,0-2.73-6.15V32.966S95.314,8,62.023,8,31.976,32.966,31.976,32.966V49.009a8.33,8.33,0,0,0-2.73,6.15v11.1a8.351,8.351,0,0,0,3.778,6.982A55.38,55.38,0,0,0,42.9,94v10.14A10.141,10.141,0,0,1,37.714,113Z" transform="translate(20.523 16.61)"/>
  <g id="Group_230" data-name="Group 230" transform="translate(0 0)">
    <path id="Path_645" data-name="Path 645" class="cls-2" d="M83.958.012A82.483,82.483,0,0,0,29.43,145.638a21.935,21.935,0,0,1,3.916-2.784l24.63-13.433a10.06,10.06,0,0,0,5.243-8.83V110.5A54.752,54.752,0,0,1,53.232,89.84a8.283,8.283,0,0,1-3.819-6.949V71.847a8.245,8.245,0,0,1,2.76-6.12V49.762s-3.28-24.845,30.371-24.845,30.371,24.845,30.371,24.845V65.727a8.233,8.233,0,0,1,2.76,6.12V82.892a8.283,8.283,0,0,1-5.875,7.88,60.677,60.677,0,0,1-8.2,16.52,39.827,39.827,0,0,1-2.5,3.208v10.347a10.053,10.053,0,0,0,5.56,8.995l26.375,13.184a21.962,21.962,0,0,1,4.33,2.9A82.515,82.515,0,0,0,83.958.012Z" transform="translate(0 0)"/>
  </g>
</svg>
