<svg xmlns="http://www.w3.org/2000/svg" xmlns:xlink="http://www.w3.org/1999/xlink" viewBox="0 0 49.475 29.939">
  <defs>
    <style>
      .cls-1, .cls-4 {
        fill: none;
        stroke: #d6d6d6;
      }

      .cls-2 {
        clip-path: url(#clip-path);
      }

      .cls-3 {
        clip-path: url(#clip-path-2);
      }

      .cls-4 {
        stroke-width: 0.75px;
      }

      .cls-5 {
        clip-path: url(#clip-path-3);
      }

      .cls-6 {
        clip-path: url(#clip-path-5);
      }

      .cls-7 {
        clip-path: url(#clip-path-7);
      }
    </style>
    <clipPath id="clip-path">
      <path id="Path_31" data-name="Path 31" class="cls-1" d="M29.83-29.559H4.9a4.31,4.31,0,0,0-4.34,3.22h0a8.988,8.988,0,0,0-.17,2.07h0V-5.118a4.436,4.436,0,0,0,0,.729h0a4.36,4.36,0,0,0,4.69,4H30.31a4.3,4.3,0,0,0,4.05-4.53h0v-20.1a2.671,2.671,0,0,0,0-.4h0c0-.006,0-.012,0-.019h0a4.329,4.329,0,0,0-4.322-4.126h0c-.069,0-.138,0-.207,0"/>
    </clipPath>
    <clipPath id="clip-path-2">
      <path id="Path_33" data-name="Path 33" class="cls-1" d="M0-29.939H49.475V0H0Z"/>
    </clipPath>
    <clipPath id="clip-path-3">
      <path id="Path_35" data-name="Path 35" class="cls-1" d="M2.74-25.8a6.867,6.867,0,0,0-.11,1.5h0V-5.139A2.181,2.181,0,0,0,4.441-2.644h0a2.166,2.166,0,0,0,.648.005H15.25v.011H29.83a2.072,2.072,0,0,0,2.28-1.837h0v0a1.621,1.621,0,0,0,0-.44h0v-20.1A2.1,2.1,0,0,0,30.22-27.3h0a2.309,2.309,0,0,0-.39,0H4.92a1.981,1.981,0,0,0-.243-.015h0A2,2,0,0,0,2.74-25.8"/>
    </clipPath>
    <clipPath id="clip-path-5">
      <path id="Path_39" data-name="Path 39" class="cls-1" d="M45.82-27.289l-3.7,2.1c-1.92,1.12-3.919,2.24-5.92,3.35h0a2.47,2.47,0,0,0-1.33,2.32h0v9.191a2.412,2.412,0,0,0,1.27,2.219h0L41.27-5.2l4.39,2.469a2.83,2.83,0,0,0,1.41.411h0a2.01,2.01,0,0,0,1.01-.241h0a2.33,2.33,0,0,0,1-2.23h0v-20.49A2.317,2.317,0,0,0,48-27.359h0a2.2,2.2,0,0,0-1.028-.255h0a2.2,2.2,0,0,0-1.152.325"/>
    </clipPath>
    <clipPath id="clip-path-7">
      <path id="Path_43" data-name="Path 43" class="cls-1" d="M43.23-23.2,37.3-19.809c-.17.1-.19.111-.19.35h0v9.2a.55.55,0,0,0,0,.181h0l.02-.121.11.08L42.38-7.2l4.38,2.49.11.051a.33.33,0,0,0,0-.14h0V-25.2Z"/>
    </clipPath>
  </defs>
  <g id="Group_34" data-name="Group 34" transform="translate(0 29.939)">
    <g id="Group_19" data-name="Group 19" class="cls-2">
      <g id="Group_18" data-name="Group 18" transform="translate(0.375 -14.969)">
        <path id="Path_30" data-name="Path 30" class="cls-1" d="M-.375-14.969H49.1V14.969H-.375Z"/>
      </g>
    </g>
    <g id="Group_21" data-name="Group 21" class="cls-3">
      <g id="Group_20" data-name="Group 20" transform="translate(22.54 -0.389)">
        <path id="Path_32" data-name="Path 32" class="cls-4" d="M0,0H-17.46a4.36,4.36,0,0,1-4.69-4,4.436,4.436,0,0,1,0-.729V-23.88a9.03,9.03,0,0,1,.17-2.069,4.311,4.311,0,0,1,4.34-3.221H7.29a4.33,4.33,0,0,1,4.529,4.121c0,.007,0,.013,0,.02a2.657,2.657,0,0,1,0,.4v20.1A4.3,4.3,0,0,1,7.77,0Z"/>
      </g>
    </g>
    <g id="Group_23" data-name="Group 23" class="cls-5">
      <g id="Group_22" data-name="Group 22" transform="translate(2.603 -14.965)">
        <path id="Path_34" data-name="Path 34" class="cls-1" d="M-2.6-14.974H46.872V14.965H-2.6Z"/>
      </g>
    </g>
    <g id="Group_25" data-name="Group 25" class="cls-3">
      <g id="Group_24" data-name="Group 24" transform="translate(15.25 -2.628)">
        <path id="Path_36" data-name="Path 36" class="cls-4" d="M0,0H14.58a2.071,2.071,0,0,0,2.28-1.837v0a1.614,1.614,0,0,0,0-.439v-20.1a2.1,2.1,0,0,0-1.89-2.289,2.309,2.309,0,0,0-.39,0H-10.33a2,2,0,0,0-2.18,1.5,6.792,6.792,0,0,0-.11,1.5V-2.511A2.179,2.179,0,0,0-10.809-.016a2.108,2.108,0,0,0,.649.005H0Z"/>
      </g>
    </g>
    <g id="Group_27" data-name="Group 27" class="cls-6">
      <g id="Group_26" data-name="Group 26" transform="translate(34.867 -14.966)">
        <path id="Path_38" data-name="Path 38" class="cls-1" d="M-34.867-14.973H14.608V14.966H-34.867Z"/>
      </g>
    </g>
    <g id="Group_29" data-name="Group 29" class="cls-3">
      <g id="Group_28" data-name="Group 28" transform="translate(47.07 -2.319)">
        <path id="Path_40" data-name="Path 40" class="cls-4" d="M0,0A2.821,2.821,0,0,1-1.41-.41L-5.8-2.88l-5.13-2.91A2.412,2.412,0,0,1-12.2-8.01V-17.2a2.472,2.472,0,0,1,1.33-2.32c2-1.11,4-2.23,5.92-3.35l3.7-2.1a2.2,2.2,0,0,1,2.18-.07,2.317,2.317,0,0,1,1.08,2.08V-2.47a2.328,2.328,0,0,1-1,2.23A1.986,1.986,0,0,1,0,0Z"/>
      </g>
    </g>
    <g id="Group_31" data-name="Group 31" class="cls-7">
      <g id="Group_30" data-name="Group 30" transform="translate(37.102 -14.929)">
        <path id="Path_42" data-name="Path 42" class="cls-1" d="M-37.1-15.01H12.372V14.929H-37.1Z"/>
      </g>
    </g>
    <g id="Group_33" data-name="Group 33" class="cls-3">
      <g id="Group_32" data-name="Group 32" transform="translate(37.13 -10.199)">
        <path id="Path_44" data-name="Path 44" class="cls-4" d="M0,0,.11.08,5.25,3,9.63,5.49l.11.05a.33.33,0,0,0,0-.14V-15L6.1-13,.17-9.61c-.17.1-.19.11-.19.35v9.2A.55.55,0,0,0-.02.12Z"/>
      </g>
    </g>
  </g>
</svg>
