<svg xmlns="http://www.w3.org/2000/svg" viewBox="0 0 20 19.06"><defs><style>.cls-1{fill:#bbb;fill-rule:evenodd;}</style></defs><title>Asset 10</title><g id="Layer_2" data-name="Layer 2"><g id="Layer_1-2" data-name="Layer 1"><path class="cls-1" d="M20,7.32l-4.73,3.46c-.37.27-.72.56-1.1.83a.44.44,0,0,0-.19.59c.68,2.07,1.35,4.16,2,6.24.05.16.09.33.18.61-.22-.15-.33-.22-.43-.3-1.79-1.29-3.58-2.56-5.35-3.87a.54.54,0,0,0-.75,0c-1.79,1.32-3.6,2.59-5.4,3.88l-.44.31c.06-.22.1-.34.14-.47.68-2.12,1.36-4.24,2.06-6.36a.49.49,0,0,0-.21-.65L.5,7.7,0,7.33l.45,0c2.26,0,4.53,0,6.8,0a.44.44,0,0,0,.5-.36C8.43,4.77,9.12,2.65,9.81.52,9.86.38,9.9.25,10,0c.1.29.17.46.22.64.68,2.08,1.37,4.15,2,6.24.1.32.23.39.55.39l6.76,0Z"/></g></g></svg>